<?xml version="1.0" encoding="UTF-8" standalone="no" ?>
<!DOCTYPE svg PUBLIC "-//W3C//DTD SVG 1.1//EN" "http://www.w3.org/Graphics/SVG/1.1/DTD/svg11.dtd">
<svg xmlns="http://www.w3.org/2000/svg" xmlns:xlink="http://www.w3.org/1999/xlink" version="1.1" width="720" height="540" viewBox="0 0 800 600" xml:space="preserve">
<desc>Created with Fabric.js 3.6.6</desc>
<defs>
</defs>
<g transform="matrix(0.41 0 0 0.41 335.21 377.29)"  >
<g style=""   >
		<g transform="matrix(1 0 0 1 320.45 -194.2)" id="Layer_1"  >
<path style="stroke: rgb(0,0,0); stroke-width: 0.1; stroke-dasharray: none; stroke-linecap: butt; stroke-dashoffset: 0; stroke-linejoin: miter; stroke-miterlimit: 4; fill: rgb(148,102,37); fill-rule: nonzero; opacity: 1;"  transform=" translate(-820.45, -305.8)" d="M 833.6 305.7 c 0 -2 -1.3 -3.9 -3.9 -5.4 c -0.6 -0.3 -1.2 -0.6 -1.9 -0.9 c 0 0 -0.1 0 -0.1 0 c -0.1 0 -0.2 -0.1 -0.3 -0.1 c -0.4 -0.1 -0.8 -0.3 -1.2 -0.4 c -0.2 -0.1 -0.4 -0.1 -0.7 -0.2 c -0.1 0 -0.2 -0.1 -0.4 -0.1 c -0.1 0 -0.2 -0.1 -0.3 -0.1 c -0.4 -0.1 -0.9 -0.2 -1.3 -0.2 c -0.2 0 -0.3 0 -0.5 -0.1 c -0.1 0 -0.2 0 -0.3 0 c -0.2 0 -0.3 0 -0.5 -0.1 c -0.4 0 -0.9 -0.1 -1.3 -0.1 c -0.1 0 -0.3 0 -0.4 0 c -0.1 0 -0.2 0 -0.4 0 c -0.2 0 -0.4 0 -0.6 0 c -0.5 0 -1 0 -1.5 0.1 c -0.1 0 -0.1 0 -0.2 0 c -0.1 0 -0.3 0 -0.4 0.1 c -0.4 0 -0.8 0.1 -1.1 0.2 c -0.2 0 -0.3 0.1 -0.5 0.1 c -0.5 0.1 -0.9 0.2 -1.3 0.3 c -0.2 0.1 -0.5 0.1 -0.7 0.2 c -0.2 0.1 -0.4 0.1 -0.5 0.2 c -0.2 0.1 -0.3 0.1 -0.5 0.2 c -0.6 0.3 -1.3 0.5 -1.8 0.9 c -0.1 0 -0.1 0.1 -0.2 0.1 c -0.1 0.1 -0.2 0.2 -0.3 0.2 c -0.2 0.1 -0.3 0.2 -0.5 0.3 c -0.1 0.1 -0.2 0.2 -0.4 0.3 c -0.1 0.1 -0.3 0.2 -0.4 0.3 c 0 0 -0.1 0 -0.1 0.1 c -0.1 0 -0.1 0.1 -0.1 0.1 c -0.2 0.2 -0.4 0.4 -0.6 0.6 c 0 0 -0.1 0.1 -0.1 0.1 c 0 0 -0.1 0.1 -0.1 0.1 c -0.1 0.2 -0.2 0.3 -0.3 0.5 c 0 0.1 -0.1 0.1 -0.1 0.2 c 0 0 0 0.1 0 0.1 c -0.1 0.1 -0.1 0.3 -0.2 0.4 c 0 0.1 -0.1 0.2 -0.1 0.2 c 0 0 0 0.1 0 0.1 c 0 0.1 -0.1 0.3 -0.1 0.4 c 0 0.1 -0.1 0.2 -0.1 0.3 c 0 0 0 0 0 0.1 c 0 0.1 0 0.3 0 0.4 c 0 0.1 0 0.2 0 0.3 c 0 0 0 0.1 0 0.1 l 0 8 c 0 -0.1 0 -0.3 0 -0.4 c 0 -0.1 0 -0.3 0 -0.4 c 0 -0.1 0.1 -0.2 0.1 -0.3 c 0 -0.1 0.1 -0.3 0.1 -0.4 c 0 -0.1 0.1 -0.2 0.1 -0.3 c 0.1 -0.1 0.1 -0.3 0.2 -0.4 c 0.1 -0.1 0.1 -0.2 0.2 -0.3 c 0.1 -0.2 0.2 -0.3 0.3 -0.5 c 0.1 -0.1 0.1 -0.2 0.2 -0.3 c 0.2 -0.2 0.4 -0.4 0.6 -0.6 c 0.1 -0.1 0.1 -0.1 0.2 -0.2 c 0.1 -0.1 0.3 -0.2 0.4 -0.3 c 0.1 -0.1 0.2 -0.2 0.4 -0.3 c 0.1 -0.1 0.3 -0.2 0.5 -0.3 c 0.2 -0.1 0.3 -0.2 0.5 -0.3 c 0.6 -0.3 1.2 -0.6 1.8 -0.9 c 0.2 -0.1 0.3 -0.1 0.5 -0.2 c 0.4 -0.1 0.8 -0.3 1.2 -0.4 c 0.4 -0.1 0.9 -0.2 1.3 -0.3 c 0.5 -0.1 1.1 -0.2 1.6 -0.3 c 0.1 0 0.3 0 0.4 -0.1 c 0.7 -0.1 1.5 -0.1 2.2 -0.1 c 0.1 0 0.2 0 0.4 0 c 0.7 0 1.5 0 2.2 0.1 c 0.1 0 0.2 0 0.3 0 c 0.7 0.1 1.4 0.2 2.1 0.4 c 0.1 0 0.3 0.1 0.4 0.1 c 0.6 0.2 1.2 0.3 1.8 0.6 c 0.1 0 0.2 0.1 0.3 0.1 c 0.7 0.3 1.4 0.6 2 0.9 c 0.6 0.4 1.2 0.8 1.7 1.2 c 0.5 0.4 0.9 0.9 1.2 1.3 c 0.3 0.5 0.6 0.9 0.7 1.4 c 0.2 0.5 0.2 1 0.2 1.5 v 0 v 0 L 833.6 305.7 z" stroke-linecap="round" />
</g>
		<g transform="matrix(1 0 0 1 360.12 -170.5)" id="Layer_1"  >
<path style="stroke: rgb(0,0,0); stroke-width: 0.1; stroke-dasharray: none; stroke-linecap: butt; stroke-dashoffset: 0; stroke-linejoin: miter; stroke-miterlimit: 4; fill: rgb(255,187,100); fill-rule: nonzero; opacity: 1;"  transform=" translate(-860.12, -329.5)" d="M 864.2 320.6 c 0 0.3 0 0.6 -0.1 0.9 c 0 0.2 -0.1 0.5 -0.2 0.7 c -0.1 0.3 -0.1 0.6 -0.2 0.8 c -0.1 0.2 -0.2 0.5 -0.3 0.7 c -0.1 0.3 -0.3 0.6 -0.4 0.9 c -0.1 0.2 -0.2 0.4 -0.4 0.6 c -0.2 0.3 -0.4 0.7 -0.7 1 c -0.2 0.3 -0.5 0.6 -0.7 0.9 c -0.1 0.1 -0.1 0.1 -0.2 0.2 c -0.4 0.4 -0.8 0.8 -1.2 1.2 c -0.3 0.2 -0.6 0.5 -0.9 0.7 c -0.3 0.2 -0.5 0.4 -0.8 0.6 c -0.3 0.2 -0.7 0.5 -1 0.7 c -0.4 0.2 -0.7 0.5 -1.1 0.7 l 0 8 c 0.1 -0.1 0.2 -0.1 0.3 -0.2 c 0.3 -0.2 0.5 -0.3 0.7 -0.5 c 0.3 -0.2 0.7 -0.4 1 -0.7 c 0.3 -0.2 0.5 -0.4 0.8 -0.6 c 0.3 -0.2 0.6 -0.5 0.9 -0.7 c 0.1 0 0.1 -0.1 0.2 -0.1 c 0.4 -0.3 0.7 -0.7 1 -1 c 0.1 -0.1 0.1 -0.1 0.2 -0.2 c 0.2 -0.2 0.4 -0.4 0.5 -0.6 c 0.1 -0.1 0.1 -0.2 0.2 -0.3 c 0.2 -0.3 0.5 -0.7 0.7 -1 c 0.1 -0.1 0.2 -0.3 0.3 -0.4 c 0 -0.1 0.1 -0.1 0.1 -0.2 c 0.2 -0.3 0.3 -0.6 0.4 -0.9 c 0.1 -0.2 0.2 -0.3 0.2 -0.5 c 0 -0.1 0 -0.1 0.1 -0.2 c 0.1 -0.3 0.2 -0.6 0.2 -0.8 c 0 -0.2 0.1 -0.4 0.2 -0.6 c 0 -0.1 0 -0.1 0 -0.2 c 0.1 -0.3 0.1 -0.6 0.1 -0.9 c 0 -0.2 0.1 -0.4 0.1 -0.6 c 0 -0.1 0 -0.2 0 -0.2 l 0 -8 C 864.3 320.1 864.2 320.4 864.2 320.6 z" stroke-linecap="round" />
</g>
		<g transform="matrix(1 0 0 1 351.75 -162.2)" id="Layer_1"  >
<polygon style="stroke: rgb(0,0,0); stroke-width: 0.1; stroke-dasharray: none; stroke-linecap: butt; stroke-dashoffset: 0; stroke-linejoin: miter; stroke-miterlimit: 4; fill: rgb(197,135,49); fill-rule: nonzero; opacity: 1;"  points="4.35,-6.5 4.35,1.5 -4.35,6.5 -4.25,-1.5 " />
</g>
		<g transform="matrix(1 0 0 1 408.65 -109.4)" id="Layer_1"  >
<path style="stroke: rgb(0,0,0); stroke-width: 0.1; stroke-dasharray: none; stroke-linecap: butt; stroke-dashoffset: 0; stroke-linejoin: miter; stroke-miterlimit: 4; fill: rgb(250,175,64); fill-rule: nonzero; opacity: 1;"  transform=" translate(-908.65, -390.6)" d="M 912.7 381.7 c 0 0.3 0 0.6 -0.1 0.9 c 0 0.2 -0.1 0.5 -0.2 0.7 c -0.1 0.3 -0.1 0.6 -0.2 0.8 c -0.1 0.2 -0.2 0.5 -0.3 0.7 c -0.1 0.3 -0.3 0.6 -0.4 0.9 c -0.1 0.2 -0.2 0.4 -0.4 0.6 c -0.2 0.3 -0.4 0.7 -0.7 1 c -0.2 0.3 -0.5 0.6 -0.7 0.9 c -0.1 0.1 -0.1 0.1 -0.2 0.2 c -0.4 0.4 -0.8 0.8 -1.2 1.2 c -0.3 0.2 -0.6 0.5 -0.9 0.7 c -0.3 0.2 -0.5 0.4 -0.8 0.6 c -0.3 0.2 -0.7 0.5 -1 0.7 c -0.4 0.2 -0.7 0.5 -1.1 0.7 l 0 8 c 0.1 -0.1 0.2 -0.1 0.3 -0.2 c 0.3 -0.2 0.5 -0.3 0.7 -0.5 c 0.3 -0.2 0.7 -0.4 1 -0.7 c 0.3 -0.2 0.5 -0.4 0.8 -0.6 c 0.3 -0.2 0.6 -0.5 0.9 -0.7 c 0.1 0 0.1 -0.1 0.2 -0.1 c 0.4 -0.3 0.7 -0.7 1 -1 c 0.1 -0.1 0.1 -0.1 0.2 -0.2 c 0.2 -0.2 0.4 -0.4 0.6 -0.6 c 0.1 -0.1 0.1 -0.2 0.2 -0.3 c 0.2 -0.3 0.5 -0.7 0.7 -1 c 0.1 -0.1 0.2 -0.3 0.3 -0.4 c 0 -0.1 0.1 -0.1 0.1 -0.2 c 0.2 -0.3 0.3 -0.6 0.4 -0.9 c 0.1 -0.2 0.2 -0.3 0.2 -0.5 c 0 -0.1 0 -0.1 0.1 -0.2 c 0.1 -0.3 0.2 -0.6 0.2 -0.8 c 0 -0.2 0.1 -0.4 0.2 -0.6 c 0 -0.1 0 -0.1 0 -0.2 c 0.1 -0.3 0.1 -0.6 0.1 -0.9 c 0 -0.2 0.1 -0.4 0.1 -0.6 c 0 -0.1 0 -0.2 0 -0.2 l 0 -8 C 912.8 381.1 912.8 381.4 912.7 381.7 z" stroke-linecap="round" />
</g>
		<g transform="matrix(1 0 0 1 252.6 -149.05)" id="Layer_1"  >
<polygon style="stroke: rgb(0,0,0); stroke-width: 0.1; stroke-dasharray: none; stroke-linecap: butt; stroke-dashoffset: 0; stroke-linejoin: miter; stroke-miterlimit: 4; fill: rgb(137,94,34); fill-rule: nonzero; opacity: 1;"  points="115.3,62.55 115.3,70.55 -115.3,-62.55 -115.3,-70.55 " />
</g>
		<g transform="matrix(1 0 0 1 386.25 -93.1)" id="Layer_1"  >
<polygon style="stroke: rgb(0,0,0); stroke-width: 0.1; stroke-dasharray: none; stroke-linecap: butt; stroke-dashoffset: 0; stroke-linejoin: miter; stroke-miterlimit: 4; fill: rgb(197,135,49); fill-rule: nonzero; opacity: 1;"  points="18.35,-14.6 18.35,-6.6 -18.35,14.6 -18.35,6.6 " />
</g>
		<g transform="matrix(1 0 0 1 275.11 -166.05)" id="Layer_1"  >
<path style="stroke: rgb(0,0,0); stroke-width: 0.1; stroke-dasharray: none; stroke-linecap: butt; stroke-dashoffset: 0; stroke-linejoin: miter; stroke-miterlimit: 4; fill: rgb(255,200,135); fill-rule: nonzero; opacity: 1;"  transform=" translate(-775.11, -333.95)" d="M 904.5 369.2 l -57 -32.9 l 8.6 -5 c 11 -6.4 10.9 -16.7 -0.1 -23.1 l -36.5 -21.1 c -11 -6.4 -28.9 -6.4 -39.9 0 l -8.6 5 l -57 -32.9 c -11 -6.4 -28.9 -6.4 -39.9 0 l -36.7 21.2 l 230.6 133.1 l 36.7 -21.2 C 915.6 385.9 915.5 375.6 904.5 369.2 z M 829.8 311.1 c -5.1 3 -13.5 3 -18.6 0 c -5.2 -3 -5.2 -7.8 -0.1 -10.8 c 5.1 -3 13.5 -3 18.6 0 C 834.9 303.3 834.9 308.1 829.8 311.1 z" stroke-linecap="round" />
</g>
		<g transform="matrix(1 0 0 1 0 5.81)" id="Layer_1"  >
<path style="stroke: rgb(0,0,0); stroke-width: 0.1; stroke-dasharray: none; stroke-linecap: butt; stroke-dashoffset: 0; stroke-linejoin: miter; stroke-miterlimit: 4; fill: rgb(84,84,83); fill-rule: nonzero; opacity: 1;"  transform=" translate(-500, -505.81)" d="M 983.3 458.4 L 983.3 458.4 l 0 -18.8 l -7 1.8 l 0.1 1.4 L 597.6 224.1 c -5.6 -3.2 -12.4 -3.2 -18 0 L 21.4 546 l -4.7 -4.7 v 19.2 l 0 0 c 0 2.8 1.4 5.6 4.1 7.2 l 379.8 219.3 c 6.7 3.9 15 3.9 21.7 0 l 557.1 -321.9 C 982.1 463.7 983.3 461 983.3 458.4 z" stroke-linecap="round" />
</g>
		<g transform="matrix(1 0 0 1 200.2 114.35)" id="Layer_1"  >
<path style="stroke: rgb(0,0,0); stroke-width: 0.1; stroke-dasharray: none; stroke-linecap: butt; stroke-dashoffset: 0; stroke-linejoin: miter; stroke-miterlimit: 4; fill: rgb(63,63,63); fill-rule: nonzero; opacity: 1;"  transform=" translate(-700.2, -614.35)" d="M 976.4 442.8 l -4 -2.3 L 417.1 761.3 v 27.9 c 1.8 -0.5 3.6 -1.2 5.2 -2.2 l 557.1 -321.9 c 2.6 -1.5 3.9 -4.1 3.9 -6.8 l 0 0 v -18.8 l -7 1.8 L 976.4 442.8 z" stroke-linecap="round" />
</g>
		<g transform="matrix(1 0 0 1 -0.01 -9.39)" id="Layer_1"  >
<path style="stroke: rgb(0,0,0); stroke-width: 0.1; stroke-dasharray: none; stroke-linecap: butt; stroke-dashoffset: 0; stroke-linejoin: miter; stroke-miterlimit: 4; fill: rgb(91,91,91); fill-rule: nonzero; opacity: 1;"  transform=" translate(-499.99, -490.61)" d="M 979.5 433 L 597.6 212.4 c -5.6 -3.2 -12.4 -3.2 -18 0 L 20.8 534.7 c -5.5 3.2 -5.5 11.1 0 14.3 l 379.8 219.3 c 6.7 3.9 15 3.9 21.7 0 l 557.1 -321.9 C 984.6 443.4 984.6 435.9 979.5 433 z" stroke-linecap="round" />
</g>
		<g transform="matrix(1 0 0 1 411.87 64.71)" id="Layer_1"  >
<path style="stroke: rgb(0,0,0); stroke-width: 0.1; stroke-dasharray: none; stroke-linecap: butt; stroke-dashoffset: 0; stroke-linejoin: miter; stroke-miterlimit: 4; fill: rgb(255,187,100); fill-rule: nonzero; opacity: 1;"  transform=" translate(-911.87, -564.71)" d="M 914.5 582 c 2.2 -1.7 2.7 -5.1 2.6 -7.8 c -0.2 -6.4 -3.7 -12.7 -8.3 -17.2 c -2 -2 -4.6 -3.6 -7.4 -4.1 c -1.5 -0.3 -3.1 -0.3 -4.5 0.5 l 9.7 -5.6 c 0.1 -0.1 0.3 -0.2 0.4 -0.2 c 0.1 0 0.1 0 0.2 -0.1 c 1.7 -0.7 3.6 -0.6 5.3 0 c 1.7 0.6 3.3 1.5 4.7 2.6 c 0 0 0.1 0.1 0.1 0.1 c 0.1 0.1 0.2 0.1 0.2 0.2 c 5.1 4.2 8.8 10.9 9.3 17.5 c 0.2 3.2 -0.4 7.1 -3.4 8.9 l -9.7 5.6 c 0.1 -0.1 0.2 -0.1 0.4 -0.2 c 0 0 0.1 0 0.1 -0.1 C 914.3 582.1 914.4 582.1 914.5 582 z" stroke-linecap="round" />
</g>
		<g transform="matrix(1 0 0 1 405.35 68)" id="Layer_1"  >
<path style="stroke: rgb(0,0,0); stroke-width: 0.1; stroke-dasharray: none; stroke-linecap: butt; stroke-dashoffset: 0; stroke-linejoin: miter; stroke-miterlimit: 4; fill: rgb(79,70,94); fill-rule: nonzero; opacity: 1;"  transform=" translate(-905.35, -568)" d="M 905.4 554.3 c 6.6 3.8 11.9 13 11.9 20.6 c 0 7.6 -5.4 10.6 -12 6.8 c -6.6 -3.8 -11.9 -13 -11.9 -20.6 C 893.5 553.5 898.8 550.5 905.4 554.3 z" stroke-linecap="round" />
</g>
		<g transform="matrix(1 0 0 1 341.53 105.5)" id="Layer_1"  >
<path style="stroke: rgb(0,0,0); stroke-width: 0.1; stroke-dasharray: none; stroke-linecap: butt; stroke-dashoffset: 0; stroke-linejoin: miter; stroke-miterlimit: 4; fill: rgb(49,68,103); fill-rule: nonzero; opacity: 1;"  transform=" translate(-841.53, -605.5)" d="M 786.3 660.2 c 2.6 -2.1 3.3 -6.2 3.2 -9.4 c -0.3 -7.8 -4.5 -15.4 -10 -20.8 c -2.4 -2.4 -5.6 -4.3 -9 -5 c -1.9 -0.3 -3.8 -0.3 -5.5 0.6 l 128.5 -74.3 c 0.2 -0.1 0.4 -0.2 0.5 -0.3 c 0.1 0 0.1 -0.1 0.2 -0.1 c 2 -0.9 4.4 -0.7 6.4 0 c 2.1 0.7 4 1.8 5.7 3.2 c 0.1 0 0.1 0.1 0.2 0.1 c 0.1 0.1 0.2 0.2 0.3 0.2 c 6.2 5.1 10.6 13.2 11.2 21.2 c 0.3 3.9 -0.4 8.6 -4.1 10.8 l -128.5 74.3 c 0.1 -0.1 0.3 -0.2 0.4 -0.3 c 0 0 0.1 -0.1 0.1 -0.1 C 786.1 660.3 786.2 660.3 786.3 660.2 z" stroke-linecap="round" />
</g>
		<g transform="matrix(1 0 0 1 275.25 143.15)" id="Layer_1"  >
<path style="stroke: rgb(0,0,0); stroke-width: 0.1; stroke-dasharray: none; stroke-linecap: butt; stroke-dashoffset: 0; stroke-linejoin: miter; stroke-miterlimit: 4; fill: rgb(79,70,94); fill-rule: nonzero; opacity: 1;"  transform=" translate(-775.25, -643.15)" d="M 775.3 626.6 c 8 4.6 14.4 15.7 14.4 24.9 c 0 9.1 -6.5 12.8 -14.5 8.2 c -8 -4.6 -14.4 -15.7 -14.4 -24.9 C 760.9 625.7 767.3 622 775.3 626.6 z" stroke-linecap="round" />
</g>
		<g transform="matrix(1 0 0 1 188.84 190.39)" id="Layer_1"  >
<path style="stroke: rgb(0,0,0); stroke-width: 0.1; stroke-dasharray: none; stroke-linecap: butt; stroke-dashoffset: 0; stroke-linejoin: miter; stroke-miterlimit: 4; fill: rgb(250,175,64); fill-rule: nonzero; opacity: 1;"  transform=" translate(-688.84, -690.39)" d="M 776 631.3 c -0.1 -0.1 -0.2 -0.1 -0.3 -0.2 c 0 0 -0.1 -0.1 -0.1 -0.1 c -1.5 -1.2 -3.3 -2.3 -5.2 -2.9 c -1.9 -0.6 -4 -0.8 -5.9 0 c -0.1 0 -0.1 0 -0.2 0.1 c -0.2 0.1 -0.3 0.2 -0.5 0.3 c 0 0 -153.3 88.7 -153.3 88.7 c 0 0 -13.5 8.3 -19 25 c 0 0.1 -1.3 7.8 6 10.2 c 1.8 0.3 3.6 0.6 5.4 0.7 c 8 0.5 16 -0.7 23.7 -3.1 c 1.8 -0.5 3.1 -1.2 4.7 -2.1 c 3.7 -2.1 7.4 -4.3 11.1 -6.4 c 6 -3.5 12 -6.9 18 -10.4 c 7.2 -4.2 51 -29.4 58.2 -33.6 c 7.5 -4.3 15 -8.7 22.5 -13 c 6.7 -3.9 13.4 -7.8 20.2 -11.7 c 4.9 -2.9 9.9 -5.7 14.8 -8.6 c 2.1 -1.2 4.3 -2.5 6.4 -3.7 c 3.3 -1.9 4 -6.3 3.7 -9.8 C 785.7 643.2 781.6 635.9 776 631.3 z" stroke-linecap="round" />
</g>
		<g transform="matrix(1 0 0 1 96.7 246.15)" id="Layer_1"  >
<path style="stroke: rgb(0,0,0); stroke-width: 0.1; stroke-dasharray: none; stroke-linecap: butt; stroke-dashoffset: 0; stroke-linejoin: miter; stroke-miterlimit: 4; fill: rgb(79,70,94); fill-rule: nonzero; opacity: 1;"  transform=" translate(-596.7, -746.15)" d="M 596.7 741.8 c 2.1 1.2 3.8 4.1 3.8 6.5 c 0 2.4 -1.7 3.4 -3.8 2.2 c -2.1 -1.2 -3.8 -4.1 -3.8 -6.5 C 592.9 741.6 594.6 740.6 596.7 741.8 z" stroke-linecap="round" />
</g>
		<g transform="matrix(1 0 0 1 19.3 -19.2)" id="Layer_1"  >
<polygon style="stroke: rgb(0,0,0); stroke-width: 0.1; stroke-dasharray: none; stroke-linecap: butt; stroke-dashoffset: 0; stroke-linejoin: miter; stroke-miterlimit: 4; fill: rgb(255,255,255); fill-rule: nonzero; opacity: 1;"  points="-420.3,44.3 77.2,-242.7 420.3,-44.7 -76.6,242.7 " />
</g>
		<g transform="matrix(1 0 0 1 98.5 -203.98)" id="Layer_1"  >
<path style="stroke: rgb(0,0,0); stroke-width: 0.1; stroke-dasharray: none; stroke-linecap: butt; stroke-dashoffset: 0; stroke-linejoin: miter; stroke-miterlimit: 4; fill: rgb(78,175,228); fill-rule: nonzero; opacity: 1;"  transform=" translate(-598.5, -296.02)" d="M 599.6 319.7 c -1.2 0 -2.4 -0.3 -3.4 -0.9 l -34.8 -20.1 c -1.2 -0.7 -1.9 -1.9 -1.9 -3.3 c 0 -1.4 0.7 -2.6 1.9 -3.3 v 0 l 32.9 -19 c 1.7 -1 3.8 -1 5.5 0 l 36 20.8 c 1.1 0.6 1.7 1.7 1.7 3 c 0 1.2 -0.6 2.3 -1.7 3 L 603 318.8 C 601.9 319.4 600.8 319.7 599.6 319.7 z M 563.3 295.4 C 563.3 295.4 563.3 295.4 563.3 295.4 l 34.8 20.1 c 0.9 0.5 2.1 0.5 3 0 l 32.3 -18.6 l -35.4 -20.4 c -0.5 -0.3 -1.2 -0.3 -1.7 0 L 563.3 295.4 z" stroke-linecap="round" />
</g>
		<g transform="matrix(1 0 0 1 117.35 -206.25)" id="Layer_1"  >
<polygon style="stroke: rgb(0,0,0); stroke-width: 0.1; stroke-dasharray: none; stroke-linecap: butt; stroke-dashoffset: 0; stroke-linejoin: miter; stroke-miterlimit: 4; fill: rgb(205,229,103); fill-rule: nonzero; opacity: 1;"  points="26.95,2.55 26.55,9.65 -26.95,8.35 -25.45,-9.65 -15.95,-9.35 -16.55,1.45 " />
</g>
		<g transform="matrix(1 0 0 1 45.5 -173.48)" id="Layer_1"  >
<path style="stroke: rgb(0,0,0); stroke-width: 0.1; stroke-dasharray: none; stroke-linecap: butt; stroke-dashoffset: 0; stroke-linejoin: miter; stroke-miterlimit: 4; fill: rgb(78,175,228); fill-rule: nonzero; opacity: 1;"  transform=" translate(-545.5, -326.52)" d="M 546.6 350.2 c -1.2 0 -2.4 -0.3 -3.4 -0.9 l -34.8 -20.1 c -1.2 -0.7 -1.9 -1.9 -1.9 -3.3 c 0 -1.4 0.7 -2.6 1.9 -3.3 v 0 l 32.9 -19 c 1.7 -1 3.8 -1 5.5 0 l 36 20.8 c 1.1 0.6 1.7 1.7 1.7 3 c 0 1.2 -0.6 2.3 -1.7 3 L 550 349.3 C 549 349.9 547.8 350.2 546.6 350.2 z M 510.3 326 C 510.3 326 510.3 326 510.3 326 l 34.8 20.1 c 0.9 0.5 2.1 0.5 3 0 l 32.3 -18.6 L 545 307 c -0.5 -0.3 -1.2 -0.3 -1.7 0 L 510.3 326 z" stroke-linecap="round" />
</g>
		<g transform="matrix(1 0 0 1 64.4 -175.7)" id="Layer_1"  >
<polygon style="stroke: rgb(0,0,0); stroke-width: 0.1; stroke-dasharray: none; stroke-linecap: butt; stroke-dashoffset: 0; stroke-linejoin: miter; stroke-miterlimit: 4; fill: rgb(205,229,103); fill-rule: nonzero; opacity: 1;"  points="26.9,2.5 26.5,9.7 -26.9,8.3 -25.5,-9.7 -16,-9.4 -16.5,1.4 " />
</g>
		<g transform="matrix(1 0 0 1 -7.5 -142.87)" id="Layer_1"  >
<path style="stroke: rgb(0,0,0); stroke-width: 0.1; stroke-dasharray: none; stroke-linecap: butt; stroke-dashoffset: 0; stroke-linejoin: miter; stroke-miterlimit: 4; fill: rgb(78,175,228); fill-rule: nonzero; opacity: 1;"  transform=" translate(-492.5, -357.13)" d="M 493.6 380.8 c -1.2 0 -2.4 -0.3 -3.4 -0.9 l -34.8 -20.1 c -1.2 -0.7 -1.9 -1.9 -1.9 -3.3 c 0 -1.4 0.7 -2.6 1.9 -3.3 v 0 l 32.9 -19 c 1.7 -1 3.8 -1 5.5 0 l 36 20.8 c 1.1 0.6 1.7 1.7 1.7 3 c 0 1.2 -0.6 2.3 -1.7 3 L 497 379.9 C 496 380.5 494.8 380.8 493.6 380.8 z M 457.4 356.5 C 457.4 356.5 457.4 356.5 457.4 356.5 l 34.8 20.1 c 0.9 0.5 2.1 0.5 3 0 l 32.3 -18.6 L 492 337.5 c -0.5 -0.3 -1.2 -0.3 -1.7 0 L 457.4 356.5 z" stroke-linecap="round" />
</g>
		<g transform="matrix(1 0 0 1 -7.9 -142.85)" id="Layer_1"  >
<polygon style="stroke: rgb(0,0,0); stroke-width: 0.1; stroke-dasharray: none; stroke-linecap: butt; stroke-dashoffset: 0; stroke-linejoin: miter; stroke-miterlimit: 4; fill: rgb(237,95,97); fill-rule: nonzero; opacity: 1;"  points="23.4,-0.45 3.9,2.25 0.4,13.55 -7,9.25 -4.3,2.35 -16.2,3.95 -23.4,-0.15 -3.5,-2.65 0.6,-13.55 7.7,-9.45 4.7,-2.75 16.1,-4.65 " />
</g>
		<g transform="matrix(1 0 0 1 -60.4 -112.37)" id="Layer_1"  >
<path style="stroke: rgb(0,0,0); stroke-width: 0.1; stroke-dasharray: none; stroke-linecap: butt; stroke-dashoffset: 0; stroke-linejoin: miter; stroke-miterlimit: 4; fill: rgb(78,175,228); fill-rule: nonzero; opacity: 1;"  transform=" translate(-439.6, -387.63)" d="M 440.7 411.3 c -1.2 0 -2.4 -0.3 -3.4 -0.9 l -34.8 -20.1 c -1.2 -0.7 -1.9 -1.9 -1.9 -3.3 c 0 -1.4 0.7 -2.6 1.9 -3.3 v 0 l 32.9 -19 c 1.7 -1 3.8 -1 5.5 0 l 36 20.8 c 1.1 0.6 1.7 1.7 1.7 3 c 0 1.2 -0.6 2.3 -1.7 3 l -32.8 18.9 C 443 411 441.8 411.3 440.7 411.3 z M 404.4 387.1 C 404.4 387.1 404.4 387.1 404.4 387.1 l 34.8 20.1 c 0.9 0.5 2.1 0.5 3 0 l 32.3 -18.6 L 439 368.1 c -0.5 -0.3 -1.2 -0.3 -1.7 0 L 404.4 387.1 z" stroke-linecap="round" />
</g>
		<g transform="matrix(1 0 0 1 -41.55 -114.6)" id="Layer_1"  >
<polygon style="stroke: rgb(0,0,0); stroke-width: 0.1; stroke-dasharray: none; stroke-linecap: butt; stroke-dashoffset: 0; stroke-linejoin: miter; stroke-miterlimit: 4; fill: rgb(205,229,103); fill-rule: nonzero; opacity: 1;"  points="26.95,2.5 26.55,9.7 -26.95,8.3 -25.45,-9.7 -15.95,-9.4 -16.55,1.4 " />
</g>
		<g transform="matrix(1 0 0 1 -113.4 -81.78)" id="Layer_1"  >
<path style="stroke: rgb(0,0,0); stroke-width: 0.1; stroke-dasharray: none; stroke-linecap: butt; stroke-dashoffset: 0; stroke-linejoin: miter; stroke-miterlimit: 4; fill: rgb(78,175,228); fill-rule: nonzero; opacity: 1;"  transform=" translate(-386.6, -418.22)" d="M 387.7 441.9 c -1.2 0 -2.4 -0.3 -3.4 -0.9 l -34.8 -20.1 c -1.2 -0.7 -1.9 -1.9 -1.9 -3.3 c 0 -1.4 0.7 -2.6 1.9 -3.3 v 0 l 32.9 -19 c 1.7 -1 3.8 -1 5.5 0 l 36 20.8 c 1.1 0.6 1.7 1.7 1.7 3 c 0 1.2 -0.6 2.3 -1.7 3 L 391.1 441 C 390 441.6 388.9 441.9 387.7 441.9 z M 351.4 417.6 C 351.4 417.6 351.4 417.6 351.4 417.6 l 34.8 20.1 c 0.9 0.5 2.1 0.5 3 0 l 32.3 -18.6 L 386 398.6 c -0.5 -0.3 -1.2 -0.3 -1.7 0 L 351.4 417.6 z" stroke-linecap="round" />
</g>
		<g transform="matrix(1 0 0 1 -94.55 -84.05)" id="Layer_1"  >
<polygon style="stroke: rgb(0,0,0); stroke-width: 0.1; stroke-dasharray: none; stroke-linecap: butt; stroke-dashoffset: 0; stroke-linejoin: miter; stroke-miterlimit: 4; fill: rgb(205,229,103); fill-rule: nonzero; opacity: 1;"  points="26.95,2.45 26.55,9.65 -26.95,8.35 -25.45,-9.65 -15.95,-9.35 -16.55,1.45 " />
</g>
		<g transform="matrix(1 0 0 1 -166.4 -51.28)" id="Layer_1"  >
<path style="stroke: rgb(0,0,0); stroke-width: 0.1; stroke-dasharray: none; stroke-linecap: butt; stroke-dashoffset: 0; stroke-linejoin: miter; stroke-miterlimit: 4; fill: rgb(78,175,228); fill-rule: nonzero; opacity: 1;"  transform=" translate(-333.6, -448.72)" d="M 334.7 472.4 c -1.2 0 -2.4 -0.3 -3.4 -0.9 l -34.8 -20.1 c -1.2 -0.7 -1.9 -1.9 -1.9 -3.3 c 0 -1.4 0.7 -2.6 1.9 -3.3 v 0 l 32.9 -19 c 1.7 -1 3.8 -1 5.5 0 l 36 20.8 c 1.1 0.6 1.7 1.7 1.7 3 c 0 1.2 -0.6 2.3 -1.7 3 l -32.8 18.9 C 337.1 472.1 335.9 472.4 334.7 472.4 z M 298.5 448.2 C 298.4 448.2 298.4 448.2 298.5 448.2 l 34.8 20.1 c 0.9 0.5 2.1 0.5 3 0 l 32.3 -18.6 l -35.4 -20.4 c -0.5 -0.3 -1.2 -0.3 -1.7 0 L 298.5 448.2 z" stroke-linecap="round" />
</g>
		<g transform="matrix(1 0 0 1 -166.5 -51.2)" id="Layer_1"  >
<polygon style="stroke: rgb(0,0,0); stroke-width: 0.1; stroke-dasharray: none; stroke-linecap: butt; stroke-dashoffset: 0; stroke-linejoin: miter; stroke-miterlimit: 4; fill: rgb(237,95,97); fill-rule: nonzero; opacity: 1;"  points="23.4,-0.4 3.9,2.2 0.4,13.6 -7,9.3 -4.3,2.4 -16.2,4 -23.4,-0.2 -3.5,-2.6 0.6,-13.6 7.7,-9.5 4.7,-2.8 16.1,-4.6 " />
</g>
		<g transform="matrix(1 0 0 1 -219.3 -20.68)" id="Layer_1"  >
<path style="stroke: rgb(0,0,0); stroke-width: 0.1; stroke-dasharray: none; stroke-linecap: butt; stroke-dashoffset: 0; stroke-linejoin: miter; stroke-miterlimit: 4; fill: rgb(78,175,228); fill-rule: nonzero; opacity: 1;"  transform=" translate(-280.7, -479.32)" d="M 281.8 503 c -1.2 0 -2.4 -0.3 -3.4 -0.9 L 243.6 482 c -1.2 -0.7 -1.9 -1.9 -1.9 -3.3 c 0 -1.4 0.7 -2.6 1.9 -3.3 v 0 l 32.9 -19 c 1.7 -1 3.8 -1 5.5 0 l 36 20.8 c 1.1 0.6 1.7 1.7 1.7 3 c 0 1.2 -0.6 2.3 -1.7 3 l -32.8 18.9 C 284.1 502.7 282.9 503 281.8 503 z M 245.5 478.7 C 245.5 478.7 245.5 478.7 245.5 478.7 l 34.8 20.1 c 0.9 0.5 2.1 0.5 3 0 l 32.3 -18.6 l -35.4 -20.4 c -0.5 -0.3 -1.2 -0.3 -1.7 0 L 245.5 478.7 z" stroke-linecap="round" />
</g>
		<g transform="matrix(1 0 0 1 -200.45 -22.95)" id="Layer_1"  >
<polygon style="stroke: rgb(0,0,0); stroke-width: 0.1; stroke-dasharray: none; stroke-linecap: butt; stroke-dashoffset: 0; stroke-linejoin: miter; stroke-miterlimit: 4; fill: rgb(205,229,103); fill-rule: nonzero; opacity: 1;"  points="26.95,2.45 26.55,9.65 -26.95,8.35 -25.45,-9.65 -15.95,-9.35 -16.55,1.45 " />
</g>
		<g transform="matrix(1 0 0 1 320.45 -212.2)" id="Layer_1"  >
<path style="stroke: rgb(0,0,0); stroke-width: 0.1; stroke-dasharray: none; stroke-linecap: butt; stroke-dashoffset: 0; stroke-linejoin: miter; stroke-miterlimit: 4; fill: rgb(250,175,64); fill-rule: nonzero; opacity: 1;"  transform=" translate(-820.45, -287.8)" d="M 833.6 287.7 c 0 -2 -1.3 -3.9 -3.9 -5.4 c -0.6 -0.3 -1.2 -0.6 -1.9 -0.9 c 0 0 -0.1 0 -0.1 0 c -0.1 0 -0.2 -0.1 -0.3 -0.1 c -0.4 -0.1 -0.8 -0.3 -1.2 -0.4 c -0.2 -0.1 -0.4 -0.1 -0.7 -0.2 c -0.1 0 -0.2 -0.1 -0.4 -0.1 c -0.1 0 -0.2 -0.1 -0.3 -0.1 c -0.4 -0.1 -0.9 -0.2 -1.3 -0.2 c -0.2 0 -0.3 0 -0.5 -0.1 c -0.1 0 -0.2 0 -0.3 0 c -0.2 0 -0.3 0 -0.5 -0.1 c -0.4 0 -0.9 -0.1 -1.3 -0.1 c -0.1 0 -0.3 0 -0.4 0 c -0.1 0 -0.2 0 -0.4 0 c -0.2 0 -0.4 0 -0.6 0 c -0.5 0 -1 0 -1.5 0.1 c -0.1 0 -0.1 0 -0.2 0 c -0.1 0 -0.3 0 -0.4 0.1 c -0.4 0 -0.8 0.1 -1.1 0.2 c -0.2 0 -0.3 0.1 -0.5 0.1 c -0.5 0.1 -0.9 0.2 -1.3 0.3 c -0.2 0.1 -0.5 0.1 -0.7 0.2 c -0.2 0.1 -0.4 0.1 -0.5 0.2 c -0.2 0.1 -0.3 0.1 -0.5 0.2 c -0.6 0.3 -1.3 0.5 -1.8 0.9 c -0.1 0 -0.1 0.1 -0.2 0.1 c -0.1 0.1 -0.2 0.2 -0.3 0.2 c -0.2 0.1 -0.3 0.2 -0.5 0.3 c -0.1 0.1 -0.2 0.2 -0.4 0.3 c -0.1 0.1 -0.3 0.2 -0.4 0.3 c 0 0 -0.1 0 -0.1 0.1 c -0.1 0 -0.1 0.1 -0.1 0.1 c -0.2 0.2 -0.4 0.4 -0.6 0.6 c 0 0 -0.1 0.1 -0.1 0.1 c 0 0 -0.1 0.1 -0.1 0.1 c -0.1 0.2 -0.2 0.3 -0.3 0.5 c 0 0.1 -0.1 0.1 -0.1 0.2 c 0 0 0 0.1 0 0.1 c -0.1 0.1 -0.1 0.3 -0.2 0.4 c 0 0.1 -0.1 0.2 -0.1 0.2 c 0 0 0 0.1 0 0.1 c 0 0.1 -0.1 0.3 -0.1 0.4 c 0 0.1 -0.1 0.2 -0.1 0.3 c 0 0 0 0 0 0.1 c 0 0.1 0 0.3 0 0.4 c 0 0.1 0 0.2 0 0.3 c 0 0 0 0.1 0 0.1 l 0 8 c 0 -0.1 0 -0.3 0 -0.4 c 0 -0.1 0 -0.3 0 -0.4 c 0 -0.1 0.1 -0.2 0.1 -0.3 c 0 -0.1 0.1 -0.3 0.1 -0.4 c 0 -0.1 0.1 -0.2 0.1 -0.3 c 0.1 -0.1 0.1 -0.3 0.2 -0.4 c 0.1 -0.1 0.1 -0.2 0.2 -0.3 c 0.1 -0.2 0.2 -0.3 0.3 -0.5 c 0.1 -0.1 0.1 -0.2 0.2 -0.3 c 0.2 -0.2 0.4 -0.4 0.6 -0.6 c 0.1 -0.1 0.1 -0.1 0.2 -0.2 c 0.1 -0.1 0.3 -0.2 0.4 -0.3 c 0.1 -0.1 0.2 -0.2 0.4 -0.3 c 0.1 -0.1 0.3 -0.2 0.5 -0.3 c 0.2 -0.1 0.3 -0.2 0.5 -0.3 c 0.6 -0.3 1.2 -0.6 1.8 -0.9 c 0.2 -0.1 0.3 -0.1 0.5 -0.2 c 0.4 -0.1 0.8 -0.3 1.2 -0.4 c 0.4 -0.1 0.9 -0.2 1.3 -0.3 c 0.5 -0.1 1.1 -0.2 1.6 -0.3 c 0.1 0 0.3 0 0.4 -0.1 c 0.7 -0.1 1.5 -0.1 2.2 -0.1 c 0.1 0 0.2 0 0.4 0 c 0.7 0 1.5 0 2.2 0.1 c 0.1 0 0.2 0 0.3 0 c 0.7 0.1 1.4 0.2 2.1 0.4 c 0.1 0 0.3 0.1 0.4 0.1 c 0.6 0.2 1.2 0.3 1.8 0.6 c 0.1 0 0.2 0.1 0.3 0.1 c 0.7 0.3 1.4 0.6 2 0.9 c 0.6 0.4 1.2 0.8 1.7 1.2 c 0.5 0.4 0.9 0.9 1.2 1.3 c 0.3 0.5 0.6 0.9 0.7 1.4 c 0.2 0.5 0.2 1 0.2 1.5 v 0 v 0 L 833.6 287.7 z" stroke-linecap="round" />
</g>
		<g transform="matrix(1 0 0 1 360.12 -188.5)" id="Layer_1"  >
<path style="stroke: rgb(0,0,0); stroke-width: 0.1; stroke-dasharray: none; stroke-linecap: butt; stroke-dashoffset: 0; stroke-linejoin: miter; stroke-miterlimit: 4; fill: rgb(250,175,64); fill-rule: nonzero; opacity: 1;"  transform=" translate(-860.12, -311.5)" d="M 864.2 302.6 c 0 0.3 0 0.6 -0.1 0.9 c 0 0.2 -0.1 0.5 -0.2 0.7 c -0.1 0.3 -0.1 0.6 -0.2 0.8 c -0.1 0.2 -0.2 0.5 -0.3 0.7 c -0.1 0.3 -0.3 0.6 -0.4 0.9 c -0.1 0.2 -0.2 0.4 -0.4 0.6 c -0.2 0.3 -0.4 0.7 -0.7 1 c -0.2 0.3 -0.5 0.6 -0.7 0.9 c -0.1 0.1 -0.1 0.1 -0.2 0.2 c -0.4 0.4 -0.8 0.8 -1.2 1.2 c -0.3 0.2 -0.6 0.5 -0.9 0.7 c -0.3 0.2 -0.5 0.4 -0.8 0.6 c -0.3 0.2 -0.7 0.5 -1 0.7 c -0.4 0.2 -0.7 0.5 -1.1 0.7 l 0 8 c 0.1 -0.1 0.2 -0.1 0.3 -0.2 c 0.3 -0.2 0.5 -0.3 0.7 -0.5 c 0.3 -0.2 0.7 -0.4 1 -0.7 c 0.3 -0.2 0.5 -0.4 0.8 -0.6 c 0.3 -0.2 0.6 -0.5 0.9 -0.7 c 0.1 0 0.1 -0.1 0.2 -0.1 c 0.4 -0.3 0.7 -0.7 1 -1 c 0.1 -0.1 0.1 -0.1 0.2 -0.2 c 0.2 -0.2 0.4 -0.4 0.5 -0.6 c 0.1 -0.1 0.1 -0.2 0.2 -0.3 c 0.2 -0.3 0.5 -0.7 0.7 -1 c 0.1 -0.1 0.2 -0.3 0.3 -0.4 c 0 -0.1 0.1 -0.1 0.1 -0.2 c 0.2 -0.3 0.3 -0.6 0.4 -0.9 c 0.1 -0.2 0.2 -0.3 0.2 -0.5 c 0 -0.1 0 -0.1 0.1 -0.2 c 0.1 -0.3 0.2 -0.6 0.2 -0.8 c 0 -0.2 0.1 -0.4 0.2 -0.6 c 0 -0.1 0 -0.1 0 -0.2 c 0.1 -0.3 0.1 -0.6 0.1 -0.9 c 0 -0.2 0.1 -0.4 0.1 -0.6 c 0 -0.1 0 -0.2 0 -0.2 l 0 -8 C 864.3 302.1 864.2 302.3 864.2 302.6 z" stroke-linecap="round" />
</g>
		<g transform="matrix(1 0 0 1 351.75 -180.25)" id="Layer_1"  >
<polygon style="stroke: rgb(0,0,0); stroke-width: 0.1; stroke-dasharray: none; stroke-linecap: butt; stroke-dashoffset: 0; stroke-linejoin: miter; stroke-miterlimit: 4; fill: rgb(255,187,100); fill-rule: nonzero; opacity: 1;"  points="4.35,-6.55 4.35,1.55 -4.35,6.55 -4.25,-1.45 " />
</g>
		<g transform="matrix(1 0 0 1 408.65 -127.5)" id="Layer_1"  >
<path style="stroke: rgb(0,0,0); stroke-width: 0.1; stroke-dasharray: none; stroke-linecap: butt; stroke-dashoffset: 0; stroke-linejoin: miter; stroke-miterlimit: 4; fill: rgb(250,175,64); fill-rule: nonzero; opacity: 1;"  transform=" translate(-908.65, -372.5)" d="M 912.7 363.6 c 0 0.3 0 0.6 -0.1 0.9 c 0 0.2 -0.1 0.5 -0.2 0.7 c -0.1 0.3 -0.1 0.6 -0.2 0.8 c -0.1 0.2 -0.2 0.5 -0.3 0.7 c -0.1 0.3 -0.3 0.6 -0.4 0.9 c -0.1 0.2 -0.2 0.4 -0.4 0.6 c -0.2 0.3 -0.4 0.7 -0.7 1 c -0.2 0.3 -0.5 0.6 -0.7 0.9 c -0.1 0.1 -0.1 0.1 -0.2 0.2 c -0.4 0.4 -0.8 0.8 -1.2 1.2 c -0.3 0.2 -0.6 0.5 -0.9 0.7 c -0.3 0.2 -0.5 0.4 -0.8 0.6 c -0.3 0.2 -0.7 0.5 -1 0.7 c -0.4 0.2 -0.7 0.5 -1.1 0.7 l 0 8 c 0.1 -0.1 0.2 -0.1 0.3 -0.2 c 0.3 -0.2 0.5 -0.3 0.7 -0.5 c 0.3 -0.2 0.7 -0.4 1 -0.7 c 0.3 -0.2 0.5 -0.4 0.8 -0.6 c 0.3 -0.2 0.6 -0.5 0.9 -0.7 c 0.1 0 0.1 -0.1 0.2 -0.1 c 0.4 -0.3 0.7 -0.7 1 -1 c 0.1 -0.1 0.1 -0.1 0.2 -0.2 c 0.2 -0.2 0.4 -0.4 0.6 -0.6 c 0.1 -0.1 0.1 -0.2 0.2 -0.3 c 0.2 -0.3 0.5 -0.7 0.7 -1 c 0.1 -0.1 0.2 -0.3 0.3 -0.4 c 0 -0.1 0.1 -0.1 0.1 -0.2 c 0.2 -0.3 0.3 -0.6 0.4 -0.9 c 0.1 -0.2 0.2 -0.3 0.2 -0.5 c 0 -0.1 0 -0.1 0.1 -0.2 c 0.1 -0.3 0.2 -0.6 0.2 -0.8 c 0 -0.2 0.1 -0.4 0.2 -0.6 c 0 -0.1 0 -0.1 0 -0.2 c 0.1 -0.3 0.1 -0.6 0.1 -0.9 c 0 -0.2 0.1 -0.4 0.1 -0.6 c 0 -0.1 0 -0.2 0 -0.2 l 0 -8 C 912.8 363.1 912.8 363.4 912.7 363.6 z" stroke-linecap="round" />
</g>
		<g transform="matrix(1 0 0 1 252.6 -167.05)" id="Layer_1"  >
<polygon style="stroke: rgb(0,0,0); stroke-width: 0.1; stroke-dasharray: none; stroke-linecap: butt; stroke-dashoffset: 0; stroke-linejoin: miter; stroke-miterlimit: 4; fill: rgb(250,175,64); fill-rule: nonzero; opacity: 1;"  points="115.3,62.55 115.3,70.55 -115.3,-62.55 -115.3,-70.55 " />
</g>
		<g transform="matrix(1 0 0 1 386.25 -111.1)" id="Layer_1"  >
<polygon style="stroke: rgb(0,0,0); stroke-width: 0.1; stroke-dasharray: none; stroke-linecap: butt; stroke-dashoffset: 0; stroke-linejoin: miter; stroke-miterlimit: 4; fill: rgb(255,187,100); fill-rule: nonzero; opacity: 1;"  points="18.35,-14.6 18.35,-6.6 -18.35,14.6 -18.35,6.6 " />
</g>
		<g transform="matrix(1 0 0 1 275.11 -184.05)" id="Layer_1"  >
<path style="stroke: rgb(0,0,0); stroke-width: 0.1; stroke-dasharray: none; stroke-linecap: butt; stroke-dashoffset: 0; stroke-linejoin: miter; stroke-miterlimit: 4; fill: rgb(255,200,135); fill-rule: nonzero; opacity: 1;"  transform=" translate(-775.11, -315.95)" d="M 904.5 351.2 l -57 -32.9 l 8.6 -5 c 11 -6.4 10.9 -16.7 -0.1 -23.1 l -36.5 -21.1 c -11 -6.4 -28.9 -6.4 -39.9 0 l -8.6 5 l -57 -32.9 c -11 -6.4 -28.9 -6.4 -39.9 0 l -36.7 21.2 l 230.6 133.1 l 36.7 -21.2 C 915.6 367.9 915.5 357.6 904.5 351.2 z M 829.8 293.1 c -5.1 3 -13.5 3 -18.6 0 c -5.2 -3 -5.2 -7.8 -0.1 -10.8 c 5.1 -3 13.5 -3 18.6 0 C 834.9 285.3 834.9 290.1 829.8 293.1 z" stroke-linecap="round" />
</g>
		<g transform="matrix(1 0 0 1 253.9 -114.4)" id="Layer_1"  >
<polygon style="stroke: rgb(0,0,0); stroke-width: 0.1; stroke-dasharray: none; stroke-linecap: butt; stroke-dashoffset: 0; stroke-linejoin: miter; stroke-miterlimit: 4; fill: rgb(78,78,78); fill-rule: nonzero; opacity: 1;"  points="120.1,64.7 112.1,69.4 -120.1,-64.7 -112.1,-69.4 " />
</g>
		<g transform="matrix(1 0 0 1 218.9 -89.4)" id="Layer_1"  >
<polygon style="stroke: rgb(0,0,0); stroke-width: 0.1; stroke-dasharray: none; stroke-linecap: butt; stroke-dashoffset: 0; stroke-linejoin: miter; stroke-miterlimit: 4; fill: rgb(78,78,78); fill-rule: nonzero; opacity: 1;"  points="120.1,64.7 112.1,69.4 -120.1,-64.7 -112.1,-69.4 " />
</g>
		<g transform="matrix(1 0 0 1 169.9 -62.4)" id="Layer_1"  >
<polygon style="stroke: rgb(0,0,0); stroke-width: 0.1; stroke-dasharray: none; stroke-linecap: butt; stroke-dashoffset: 0; stroke-linejoin: miter; stroke-miterlimit: 4; fill: rgb(78,78,78); fill-rule: nonzero; opacity: 1;"  points="120.1,64.7 112.1,69.4 -120.1,-64.7 -112.1,-69.4 " />
</g>
		<g transform="matrix(1 0 0 1 116.9 -31.4)" id="Layer_1"  >
<polygon style="stroke: rgb(0,0,0); stroke-width: 0.1; stroke-dasharray: none; stroke-linecap: butt; stroke-dashoffset: 0; stroke-linejoin: miter; stroke-miterlimit: 4; fill: rgb(78,78,78); fill-rule: nonzero; opacity: 1;"  points="120.1,64.7 112.1,69.4 -120.1,-64.7 -112.1,-69.4 " />
</g>
		<g transform="matrix(1 0 0 1 62.9 -0.4)" id="Layer_1"  >
<polygon style="stroke: rgb(0,0,0); stroke-width: 0.1; stroke-dasharray: none; stroke-linecap: butt; stroke-dashoffset: 0; stroke-linejoin: miter; stroke-miterlimit: 4; fill: rgb(78,78,78); fill-rule: nonzero; opacity: 1;"  points="120.1,64.7 112.1,69.4 -120.1,-64.7 -112.1,-69.4 " />
</g>
		<g transform="matrix(1 0 0 1 -0.1 37.6)" id="Layer_1"  >
<polygon style="stroke: rgb(0,0,0); stroke-width: 0.1; stroke-dasharray: none; stroke-linecap: butt; stroke-dashoffset: 0; stroke-linejoin: miter; stroke-miterlimit: 4; fill: rgb(78,78,78); fill-rule: nonzero; opacity: 1;"  points="120.1,64.7 112.1,69.4 -120.1,-64.7 -112.1,-69.4 " />
</g>
		<g transform="matrix(1 0 0 1 -57.1 76.6)" id="Layer_1"  >
<polygon style="stroke: rgb(0,0,0); stroke-width: 0.1; stroke-dasharray: none; stroke-linecap: butt; stroke-dashoffset: 0; stroke-linejoin: miter; stroke-miterlimit: 4; fill: rgb(78,78,78); fill-rule: nonzero; opacity: 1;"  points="120.1,64.7 112.1,69.4 -120.1,-64.7 -112.1,-69.4 " />
</g>
</g>
</g>
<g transform="matrix(0.31 0 0 0.31 229.38 291.88)"  >
<g style=""   >
		<g transform="matrix(1 0 0 1 -110.35 -13.65)" id="Layer_1"  >
<path style="stroke: rgb(0,0,0); stroke-width: 0.1; stroke-dasharray: none; stroke-linecap: butt; stroke-dashoffset: 0; stroke-linejoin: miter; stroke-miterlimit: 4; fill: none; fill-rule: nonzero; opacity: 1;"  transform=" translate(-389.65, -486.35)" d="M 387.6 484.5 C 387.6 484.5 387.6 484.5 387.6 484.5 c 2.2 -1.4 3.1 -2.8 3.1 -2.8 c 0.4 3 0.7 6.1 1 9.3 C 389.5 487.5 387.6 484.5 387.6 484.5 z" stroke-linecap="round" />
</g>
		<g transform="matrix(1 0 0 1 26.06 316.05)" id="Layer_1"  >
<path style="stroke: rgb(0,0,0); stroke-width: 0.1; stroke-dasharray: none; stroke-linecap: butt; stroke-dashoffset: 0; stroke-linejoin: miter; stroke-miterlimit: 4; fill: rgb(56,55,69); fill-rule: nonzero; opacity: 1;"  transform=" translate(-526.06, -816.05)" d="M 527.9 812.8 c 0.2 2.4 -1 4.8 -3.7 6.5 C 527 817.7 528.1 815.2 527.9 812.8 z" stroke-linecap="round" />
</g>
		<g transform="matrix(1 0 0 1 -37.35 306)" id="Layer_1"  >
<path style="stroke: rgb(0,0,0); stroke-width: 0.1; stroke-dasharray: none; stroke-linecap: butt; stroke-dashoffset: 0; stroke-linejoin: miter; stroke-miterlimit: 4; fill: rgb(56,55,69); fill-rule: nonzero; opacity: 1;"  transform=" translate(-462.65, -806)" d="M 463.7 804.1 c 7.6 0 11.9 4.8 19.7 9.3 C 475.6 808.9 471.4 804.1 463.7 804.1 c -0.2 2 -0.2 2 -0.2 2 s -15.5 -2.3 -21.6 -7.5 c 6.1 5.2 21.6 7.5 21.6 7.5 S 463.5 806.2 463.7 804.1 z" stroke-linecap="round" />
</g>
		<g transform="matrix(1 0 0 1 -15.7 287.41)" id="Layer_1"  >
<path style="stroke: rgb(0,0,0); stroke-width: 0.1; stroke-dasharray: none; stroke-linecap: butt; stroke-dashoffset: 0; stroke-linejoin: miter; stroke-miterlimit: 4; fill: rgb(56,55,69); fill-rule: nonzero; opacity: 1;"  transform=" translate(-484.3, -787.41)" d="M 463.1 768 c 10.1 1.4 16.5 -0.6 20.3 -3.2 l 0 0 c 0 0 -0.3 6.2 12.6 13.8 c 12.9 7.7 35 17.9 31.7 32.9 c 0 0 -1.1 5.7 -14.1 6 c -13 0.3 -23.8 -5.3 -29.6 -8.5 c -5.8 -3.2 -14.3 -7.8 -20 -9.2 c -5.7 -1.4 -20.5 -4.7 -23.2 -11.5 l 0 0 c -0.1 -3.7 -1.2 -10.2 2.5 -21.2 c 1.6 -4.9 2.3 -9.8 2.3 -9.8 h 0 C 447 760.8 451.1 766.4 463.1 768 z" stroke-linecap="round" />
</g>
		<g transform="matrix(1 0 0 1 -81.05 345.05)" id="Layer_1"  >
<path style="stroke: rgb(0,0,0); stroke-width: 0.1; stroke-dasharray: none; stroke-linecap: butt; stroke-dashoffset: 0; stroke-linejoin: miter; stroke-miterlimit: 4; fill: rgb(56,55,69); fill-rule: nonzero; opacity: 1;"  transform=" translate(-418.95, -845.05)" d="M 418.9 846.2 c 0.1 -0.8 0.1 -1.5 0.1 -2.3 C 419 844.6 418.9 845.4 418.9 846.2 z" stroke-linecap="round" />
</g>
		<g transform="matrix(1 0 0 1 -81.2 333.6)" id="Layer_1"  >
<path style="stroke: rgb(0,0,0); stroke-width: 0.1; stroke-dasharray: none; stroke-linecap: butt; stroke-dashoffset: 0; stroke-linejoin: miter; stroke-miterlimit: 4; fill: rgb(56,55,69); fill-rule: nonzero; opacity: 1;"  transform=" translate(-418.8, -833.6)" d="M 418.9 835.4 c -0.1 -1.2 -0.1 -2.4 -0.2 -3.6 C 418.8 833 418.9 834.2 418.9 835.4 z" stroke-linecap="round" />
</g>
		<g transform="matrix(1 0 0 1 -81.4 348.55)" id="Layer_1"  >
<path style="stroke: rgb(0,0,0); stroke-width: 0.1; stroke-dasharray: none; stroke-linecap: butt; stroke-dashoffset: 0; stroke-linejoin: miter; stroke-miterlimit: 4; fill: rgb(56,55,69); fill-rule: nonzero; opacity: 1;"  transform=" translate(-418.6, -848.55)" d="M 418.5 849.6 c 0.1 -0.7 0.2 -1.4 0.2 -2.1 C 418.7 848.2 418.6 848.9 418.5 849.6 z" stroke-linecap="round" />
</g>
		<g transform="matrix(1 0 0 1 -81.05 337.55)" id="Layer_1"  >
<path style="stroke: rgb(0,0,0); stroke-width: 0.1; stroke-dasharray: none; stroke-linecap: butt; stroke-dashoffset: 0; stroke-linejoin: miter; stroke-miterlimit: 4; fill: rgb(56,55,69); fill-rule: nonzero; opacity: 1;"  transform=" translate(-418.95, -837.55)" d="M 419 839 c 0 -1 0 -1.9 -0.1 -2.9 C 419 837.1 419 838.1 419 839 z" stroke-linecap="round" />
</g>
		<g transform="matrix(1 0 0 1 -80.98 341.35)" id="Layer_1"  >
<path style="stroke: rgb(0,0,0); stroke-width: 0.1; stroke-dasharray: none; stroke-linecap: butt; stroke-dashoffset: 0; stroke-linejoin: miter; stroke-miterlimit: 4; fill: rgb(56,55,69); fill-rule: nonzero; opacity: 1;"  transform=" translate(-419.02, -841.35)" d="M 419 842.6 c 0 -0.8 0 -1.7 0 -2.5 C 419.1 840.9 419 841.8 419 842.6 z" stroke-linecap="round" />
</g>
		<g transform="matrix(1 0 0 1 -83.75 358.85)" id="Layer_1"  >
<path style="stroke: rgb(0,0,0); stroke-width: 0.1; stroke-dasharray: none; stroke-linecap: butt; stroke-dashoffset: 0; stroke-linejoin: miter; stroke-miterlimit: 4; fill: rgb(56,55,69); fill-rule: nonzero; opacity: 1;"  transform=" translate(-416.25, -858.85)" d="M 415.7 860.3 c 0.4 -0.9 0.8 -1.9 1.1 -2.9 C 416.5 858.4 416.1 859.3 415.7 860.3 z" stroke-linecap="round" />
</g>
		<g transform="matrix(1 0 0 1 -81.9 351.95)" id="Layer_1"  >
<path style="stroke: rgb(0,0,0); stroke-width: 0.1; stroke-dasharray: none; stroke-linecap: butt; stroke-dashoffset: 0; stroke-linejoin: miter; stroke-miterlimit: 4; fill: rgb(56,55,69); fill-rule: nonzero; opacity: 1;"  transform=" translate(-418.1, -851.95)" d="M 417.9 853 c 0.1 -0.7 0.3 -1.4 0.4 -2.1 C 418.2 851.7 418.1 852.4 417.9 853 z" stroke-linecap="round" />
</g>
		<g transform="matrix(1 0 0 1 -100.54 330.7)" id="Layer_1"  >
<path style="stroke: rgb(0,0,0); stroke-width: 0.1; stroke-dasharray: none; stroke-linecap: butt; stroke-dashoffset: 0; stroke-linejoin: miter; stroke-miterlimit: 4; fill: rgb(56,55,69); fill-rule: nonzero; opacity: 1;"  transform=" translate(-399.46, -830.7)" d="M 396.4 800.9 c -5.6 -1.2 -9.4 -2.9 -12.2 -4.9 l 0 0 c 0 0 -5 34.2 -4 46.3 c 6 18.6 14.9 22.8 21.2 23.1 c 18 -0.9 17.8 -25.6 17.3 -33.6 c -0.6 -8 -2 -15.3 -3 -20.1 c -2.2 -10.7 -0.5 -13.7 -0.5 -13.7 l 0 0 C 411.3 800.7 405.2 802.8 396.4 800.9 z M 418.7 831.5 C 418.7 831.5 418.7 831.5 418.7 831.5 C 418.7 831.5 418.7 831.5 418.7 831.5 z" stroke-linecap="round" />
</g>
		<g transform="matrix(1 0 0 1 -82.6 355.35)" id="Layer_1"  >
<path style="stroke: rgb(0,0,0); stroke-width: 0.1; stroke-dasharray: none; stroke-linecap: butt; stroke-dashoffset: 0; stroke-linejoin: miter; stroke-miterlimit: 4; fill: rgb(56,55,69); fill-rule: nonzero; opacity: 1;"  transform=" translate(-417.4, -855.35)" d="M 417.1 856.4 c 0.2 -0.7 0.4 -1.4 0.6 -2.1 C 417.5 855 417.3 855.7 417.1 856.4 z" stroke-linecap="round" />
</g>
		<g transform="matrix(1 0 0 1 -81.3 331.5)" id="Layer_1"  >
<path style="stroke: rgb(29,29,27); stroke-width: 0; stroke-dasharray: none; stroke-linecap: round; stroke-dashoffset: 0; stroke-linejoin: round; stroke-miterlimit: 4; fill: none; fill-rule: nonzero; opacity: 1;"  transform=" translate(-418.7, -831.5)" d="M 418.7 831.5 C 418.7 831.5 418.7 831.5 418.7 831.5" stroke-linecap="round" />
</g>
		<g transform="matrix(1 0 0 1 -100.4 351.08)" id="Layer_1"  >
<path style="stroke: rgb(0,0,0); stroke-width: 0.1; stroke-dasharray: none; stroke-linecap: butt; stroke-dashoffset: 0; stroke-linejoin: miter; stroke-miterlimit: 4; fill: rgb(29,29,27); fill-rule: nonzero; opacity: 1;"  transform=" translate(-399.6, -851.08)" d="M 401.4 865.4 c 18 -0.9 17.8 -25.6 17.3 -33.6 l 0 0 l 0 0 c 0.1 1.2 0.2 2.4 0.2 3.6 c 0 0.2 0 0.5 0 0.7 c 0 0.9 0.1 1.9 0.1 2.9 c 0 0.4 0 0.7 0 1.1 c 0 0.8 0 1.7 0 2.5 c 0 0.4 0 0.9 0 1.3 c 0 0.8 -0.1 1.5 -0.1 2.3 c 0 0.4 -0.1 0.9 -0.1 1.3 c -0.1 0.7 -0.2 1.4 -0.2 2.1 c -0.1 0.4 -0.1 0.9 -0.2 1.3 c -0.1 0.7 -0.2 1.4 -0.4 2.1 c -0.1 0.4 -0.2 0.8 -0.3 1.2 c -0.2 0.7 -0.4 1.4 -0.6 2.1 c -0.1 0.3 -0.2 0.7 -0.3 1 c -0.3 1 -0.7 2 -1.1 2.9 c -6.3 13.7 -19.1 11 -24.3 6.6 s -10.2 -12.4 -11.2 -24.6 C 386.2 860.9 395.1 865.1 401.4 865.4 z" stroke-linecap="round" />
</g>
		<g transform="matrix(1 0 0 1 -16.09 304.91)" id="Layer_1"  >
<path style="stroke: rgb(0,0,0); stroke-width: 0.1; stroke-dasharray: none; stroke-linecap: butt; stroke-dashoffset: 0; stroke-linejoin: miter; stroke-miterlimit: 4; fill: rgb(29,29,27); fill-rule: nonzero; opacity: 1;"  transform=" translate(-483.91, -804.91)" d="M 463.9 799.8 c 5.7 1.4 14.2 5.9 20 9.2 c 5.8 3.2 16.5 8.8 29.6 8.5 c 13 -0.3 14.1 -6 14.1 -6 c 0.1 0.5 0.2 0.9 0.3 1.4 c 0.2 2.4 -1 4.8 -3.7 6.5 c -1.1 0.7 -2.4 1.2 -4 1.5 c -6.4 1.3 -18.6 0.3 -30.7 -4.5 c -2.3 -0.9 -4.3 -1.9 -6.1 -2.9 c -7.8 -4.4 -12.1 -9.3 -19.7 -9.3 c -0.2 2 -0.2 2 -0.2 2 s -15.5 -2.3 -21.6 -7.5 c -0.9 -0.7 -1.6 -1.5 -2 -2.4 c 0 -0.6 0 -1.1 0 -1.5 c 0 -3.4 0.2 -5.1 0.9 -6.4 l 0 0 C 443.5 795.1 458.2 798.4 463.9 799.8 z" stroke-linecap="round" />
</g>
		<g transform="matrix(1 0 0 1 -50.78 108.94)" id="Layer_1"  >
<path style="stroke: rgb(0,0,0); stroke-width: 0.1; stroke-dasharray: none; stroke-linecap: butt; stroke-dashoffset: 0; stroke-linejoin: miter; stroke-miterlimit: 4; fill: rgb(82,84,101); fill-rule: nonzero; opacity: 1;"  transform=" translate(-449.22, -608.94)" d="M 406.7 517.1 c -2.5 -1.5 -6.9 -9.7 -8.6 -14.4 c -0.9 -2.5 -3.8 -7.5 -6.4 -11.6 c -0.3 -3.2 -0.6 -6.4 -1 -9.3 l -0.4 -17.1 c 0 0 4.1 -2 4.6 -14.5 c 0.2 -5 0.4 -9.2 0.6 -12.6 c 9.1 12.1 40.7 17.5 79.5 7.1 c 38.8 -10.3 42.9 -27.6 42.9 -27.6 c 0 -0.3 0 -0.5 -0.1 -0.8 c 1.7 22.6 5.5 90.6 -3.6 147.8 c -3 51.7 -25 191.9 -26.5 195.6 c -0.6 1.5 -2 3.4 -4.4 5.1 c -3.8 2.6 -10.2 4.6 -20.3 3.2 c -12 -1.6 -16.1 -7.2 -17.5 -10.8 c -0.5 -1.4 -0.6 -2.5 -0.6 -3 c 0.1 -1.8 10.7 -114.5 11.1 -129.6 c 0 -1 0 -2.2 0.1 -3.4 c 0 0 0 0.1 0 0.1 l 0 0 l 19.7 -118.7 l -13.2 6.8 l -7.6 58.7 c 0 0 0 0.1 0 0.3 c 0 -0.2 0 -0.3 0 -0.3 s -32.7 221.9 -34.8 225 c -0.8 1.2 -2.5 3.2 -5 4.9 c -3.9 2.6 -10 4.7 -18.8 2.9 c -5.6 -1.2 -9.4 -2.9 -12.2 -4.9 c -4.4 -3.2 -5.7 -6.9 -5.8 -9.5 c -0.2 -4.2 12 -131.6 12.9 -141.9 c 0.8 -8.5 4.2 -77.2 1.8 -130.9 C 401.4 524.9 409 518.5 406.7 517.1 z" stroke-linecap="round" />
</g>
		<g transform="matrix(1 0 0 1 -44.5 82.6)" id="Layer_1"  >
<path style="stroke: rgb(0,0,0); stroke-width: 0.1; stroke-dasharray: none; stroke-linecap: butt; stroke-dashoffset: 0; stroke-linejoin: miter; stroke-miterlimit: 4; fill: rgb(82,84,101); fill-rule: nonzero; opacity: 1;"  transform=" translate(-455.5, -582.6)" d="M 455.5 582.2 c 0 0.2 0 0.5 0 0.8 C 455.5 582.7 455.5 582.4 455.5 582.2 z" stroke-linecap="round" />
</g>
		<g transform="matrix(1 0 0 1 -44.3 90.42)" id="Layer_1"  >
<path style="stroke: rgb(0,0,0); stroke-width: 0.1; stroke-dasharray: none; stroke-linecap: butt; stroke-dashoffset: 0; stroke-linejoin: miter; stroke-miterlimit: 4; fill: rgb(82,84,101); fill-rule: nonzero; opacity: 1;"  transform=" translate(-455.7, -590.42)" d="M 455.7 590.4 C 455.7 590.4 455.7 590.5 455.7 590.4 C 455.7 590.5 455.7 590.4 455.7 590.4 z" stroke-linecap="round" />
</g>
		<g transform="matrix(1 0 0 1 -44.3 92.6)" id="Layer_1"  >
<path style="stroke: rgb(0,0,0); stroke-width: 0.1; stroke-dasharray: none; stroke-linecap: butt; stroke-dashoffset: 0; stroke-linejoin: miter; stroke-miterlimit: 4; fill: rgb(82,84,101); fill-rule: nonzero; opacity: 1;"  transform=" translate(-455.7, -592.6)" d="M 455.7 592.6 C 455.7 592.6 455.7 592.6 455.7 592.6 C 455.7 592.6 455.7 592.6 455.7 592.6 z" stroke-linecap="round" />
</g>
		<g transform="matrix(1 0 0 1 -44.16 96.85)" id="Layer_1"  >
<path style="stroke: rgb(0,0,0); stroke-width: 0.1; stroke-dasharray: none; stroke-linecap: butt; stroke-dashoffset: 0; stroke-linejoin: miter; stroke-miterlimit: 4; fill: rgb(82,84,101); fill-rule: nonzero; opacity: 1;"  transform=" translate(-455.84, -596.85)" d="M 455.8 596.5 c 0 0.2 0 0.5 0 0.7 C 455.9 597 455.9 596.7 455.8 596.5 z" stroke-linecap="round" />
</g>
		<g transform="matrix(1 0 0 1 -44.2 94.65)" id="Layer_1"  >
<path style="stroke: rgb(0,0,0); stroke-width: 0.1; stroke-dasharray: none; stroke-linecap: butt; stroke-dashoffset: 0; stroke-linejoin: miter; stroke-miterlimit: 4; fill: rgb(82,84,101); fill-rule: nonzero; opacity: 1;"  transform=" translate(-455.8, -594.65)" d="M 455.8 594.3 c 0 0.2 0 0.4 0 0.7 C 455.8 594.8 455.8 594.5 455.8 594.3 z" stroke-linecap="round" />
</g>
		<g transform="matrix(1 0 0 1 -44.86 72.8)" id="Layer_1"  >
<path style="stroke: rgb(0,0,0); stroke-width: 0.1; stroke-dasharray: none; stroke-linecap: butt; stroke-dashoffset: 0; stroke-linejoin: miter; stroke-miterlimit: 4; fill: rgb(82,84,101); fill-rule: nonzero; opacity: 1;"  transform=" translate(-455.14, -572.8)" d="M 455.1 572.4 c 0 0.3 0 0.5 0 0.8 C 455.2 572.9 455.2 572.7 455.1 572.4 z" stroke-linecap="round" />
</g>
		<g transform="matrix(1 0 0 1 -44.8 73.95)" id="Layer_1"  >
<path style="stroke: rgb(0,0,0); stroke-width: 0.1; stroke-dasharray: none; stroke-linecap: butt; stroke-dashoffset: 0; stroke-linejoin: miter; stroke-miterlimit: 4; fill: rgb(82,84,101); fill-rule: nonzero; opacity: 1;"  transform=" translate(-455.2, -573.95)" d="M 455.2 573.7 c 0 0.2 0 0.3 0 0.5 C 455.2 574.1 455.2 573.9 455.2 573.7 z" stroke-linecap="round" />
</g>
		<g transform="matrix(1 0 0 1 -44.7 75.5)" id="Layer_1"  >
<path style="stroke: rgb(0,0,0); stroke-width: 0.1; stroke-dasharray: none; stroke-linecap: butt; stroke-dashoffset: 0; stroke-linejoin: miter; stroke-miterlimit: 4; fill: rgb(82,84,101); fill-rule: nonzero; opacity: 1;"  transform=" translate(-455.3, -575.5)" d="M 455.3 575.5 C 455.3 575.5 455.3 575.5 455.3 575.5 C 455.3 575.5 455.3 575.5 455.3 575.5 z" stroke-linecap="round" />
</g>
		<g transform="matrix(1 0 0 1 -44.66 78.8)" id="Layer_1"  >
<path style="stroke: rgb(0,0,0); stroke-width: 0.1; stroke-dasharray: none; stroke-linecap: butt; stroke-dashoffset: 0; stroke-linejoin: miter; stroke-miterlimit: 4; fill: rgb(82,84,101); fill-rule: nonzero; opacity: 1;"  transform=" translate(-455.34, -578.8)" d="M 455.3 578.4 c 0 0.3 0 0.5 0 0.8 C 455.4 579 455.4 578.7 455.3 578.4 z" stroke-linecap="round" />
</g>
		<g transform="matrix(1 0 0 1 -44.1 99.2)" id="Layer_1"  >
<path style="stroke: rgb(0,0,0); stroke-width: 0.1; stroke-dasharray: none; stroke-linecap: butt; stroke-dashoffset: 0; stroke-linejoin: miter; stroke-miterlimit: 4; fill: rgb(82,84,101); fill-rule: nonzero; opacity: 1;"  transform=" translate(-455.9, -599.2)" d="M 455.9 598.9 c 0 0.2 0 0.4 0 0.6 C 455.9 599.2 455.9 599.1 455.9 598.9 z" stroke-linecap="round" />
</g>
		<g transform="matrix(1 0 0 1 -44.7 77.25)" id="Layer_1"  >
<path style="stroke: rgb(0,0,0); stroke-width: 0.1; stroke-dasharray: none; stroke-linecap: butt; stroke-dashoffset: 0; stroke-linejoin: miter; stroke-miterlimit: 4; fill: rgb(82,84,101); fill-rule: nonzero; opacity: 1;"  transform=" translate(-455.3, -577.25)" d="M 455.3 576.8 c 0 0.3 0 0.6 0 0.9 C 455.3 577.4 455.3 577.1 455.3 576.8 z" stroke-linecap="round" />
</g>
		<g transform="matrix(1 0 0 1 -44.6 80.7)" id="Layer_1"  >
<path style="stroke: rgb(0,0,0); stroke-width: 0.1; stroke-dasharray: none; stroke-linecap: butt; stroke-dashoffset: 0; stroke-linejoin: miter; stroke-miterlimit: 4; fill: rgb(82,84,101); fill-rule: nonzero; opacity: 1;"  transform=" translate(-455.4, -580.7)" d="M 455.4 580.4 c 0 0.2 0 0.4 0 0.6 C 455.4 580.8 455.4 580.6 455.4 580.4 z" stroke-linecap="round" />
</g>
		<g transform="matrix(1 0 0 1 -44 105.9)" id="Layer_1"  >
<path style="stroke: rgb(0,0,0); stroke-width: 0.1; stroke-dasharray: none; stroke-linecap: butt; stroke-dashoffset: 0; stroke-linejoin: miter; stroke-miterlimit: 4; fill: rgb(82,84,101); fill-rule: nonzero; opacity: 1;"  transform=" translate(-456, -605.9)" d="M 456 605.6 c 0 0.2 0 0.4 0 0.6 C 456 606 456 605.8 456 605.6 z" stroke-linecap="round" />
</g>
		<g transform="matrix(1 0 0 1 -43.9 110.2)" id="Layer_1"  >
<path style="stroke: rgb(0,0,0); stroke-width: 0.1; stroke-dasharray: none; stroke-linecap: butt; stroke-dashoffset: 0; stroke-linejoin: miter; stroke-miterlimit: 4; fill: rgb(82,84,101); fill-rule: nonzero; opacity: 1;"  transform=" translate(-456.1, -610.2)" d="M 456.1 610 c 0 0.1 0 0.3 0 0.4 C 456.1 610.2 456.1 610.1 456.1 610 z" stroke-linecap="round" />
</g>
		<g transform="matrix(1 0 0 1 17.75 -85.6)" id="Layer_1"  >
<path style="stroke: rgb(0,0,0); stroke-width: 0.1; stroke-dasharray: none; stroke-linecap: butt; stroke-dashoffset: 0; stroke-linejoin: miter; stroke-miterlimit: 4; fill: rgb(82,84,101); fill-rule: nonzero; opacity: 1;"  transform=" translate(-517.75, -414.4)" d="M 517.8 414.9 c 0 -0.3 -0.1 -0.6 -0.1 -1 C 517.8 414.2 517.8 414.5 517.8 414.9 z" stroke-linecap="round" />
</g>
		<g transform="matrix(1 0 0 1 -43.9 112.3)" id="Layer_1"  >
<path style="stroke: rgb(0,0,0); stroke-width: 0.1; stroke-dasharray: none; stroke-linecap: butt; stroke-dashoffset: 0; stroke-linejoin: miter; stroke-miterlimit: 4; fill: rgb(82,84,101); fill-rule: nonzero; opacity: 1;"  transform=" translate(-456.1, -612.3)" d="M 456.1 612.1 c 0 0.1 0 0.3 0 0.4 C 456.1 612.3 456.1 612.2 456.1 612.1 z" stroke-linecap="round" />
</g>
		<g transform="matrix(1 0 0 1 -43.9 114.2)" id="Layer_1"  >
<path style="stroke: rgb(0,0,0); stroke-width: 0.1; stroke-dasharray: none; stroke-linecap: butt; stroke-dashoffset: 0; stroke-linejoin: miter; stroke-miterlimit: 4; fill: rgb(82,84,101); fill-rule: nonzero; opacity: 1;"  transform=" translate(-456.1, -614.2)" d="M 456.1 614.1 c 0 0.1 0 0.2 0 0.2 C 456.1 614.3 456.1 614.2 456.1 614.1 z" stroke-linecap="round" />
</g>
		<g transform="matrix(1 0 0 1 17.5 -89.25)" id="Layer_1"  >
<path style="stroke: rgb(0,0,0); stroke-width: 0.1; stroke-dasharray: none; stroke-linecap: butt; stroke-dashoffset: 0; stroke-linejoin: miter; stroke-miterlimit: 4; fill: rgb(82,84,101); fill-rule: nonzero; opacity: 1;"  transform=" translate(-517.5, -410.75)" d="M 517.5 410.8 c 0 0 0 -0.1 0 -0.1 C 517.5 410.7 517.5 410.8 517.5 410.8 z" stroke-linecap="round" />
</g>
		<g transform="matrix(1 0 0 1 17.4 -90.4)" id="Layer_1"  >
<path style="stroke: rgb(0,0,0); stroke-width: 0.1; stroke-dasharray: none; stroke-linecap: butt; stroke-dashoffset: 0; stroke-linejoin: miter; stroke-miterlimit: 4; fill: rgb(82,84,101); fill-rule: nonzero; opacity: 1;"  transform=" translate(-517.4, -409.6)" d="M 517.4 409.7 c 0 -0.1 0 -0.2 0 -0.2 C 517.4 409.5 517.4 409.6 517.4 409.7 z" stroke-linecap="round" />
</g>
		<g transform="matrix(1 0 0 1 17.3 -91.12)" id="Layer_1"  >
<path style="stroke: rgb(0,0,0); stroke-width: 0.1; stroke-dasharray: none; stroke-linecap: butt; stroke-dashoffset: 0; stroke-linejoin: miter; stroke-miterlimit: 4; fill: rgb(82,84,101); fill-rule: nonzero; opacity: 1;"  transform=" translate(-517.3, -408.88)" d="M 517.3 408.9 C 517.3 408.9 517.3 408.8 517.3 408.9 C 517.3 408.8 517.3 408.9 517.3 408.9 z" stroke-linecap="round" />
</g>
		<g transform="matrix(1 0 0 1 -44.06 101.4)" id="Layer_1"  >
<path style="stroke: rgb(0,0,0); stroke-width: 0.1; stroke-dasharray: none; stroke-linecap: butt; stroke-dashoffset: 0; stroke-linejoin: miter; stroke-miterlimit: 4; fill: rgb(82,84,101); fill-rule: nonzero; opacity: 1;"  transform=" translate(-455.94, -601.4)" d="M 455.9 601 c 0 0.3 0 0.5 0 0.8 C 456 601.5 456 601.3 455.9 601 z" stroke-linecap="round" />
</g>
		<g transform="matrix(1 0 0 1 17.65 -87.45)" id="Layer_1"  >
<path style="stroke: rgb(0,0,0); stroke-width: 0.1; stroke-dasharray: none; stroke-linecap: butt; stroke-dashoffset: 0; stroke-linejoin: miter; stroke-miterlimit: 4; fill: rgb(82,84,101); fill-rule: nonzero; opacity: 1;"  transform=" translate(-517.65, -412.55)" d="M 517.7 412.9 c 0 -0.2 0 -0.5 -0.1 -0.7 C 517.6 412.4 517.6 412.6 517.7 412.9 z" stroke-linecap="round" />
</g>
		<g transform="matrix(1 0 0 1 -44 103.65)" id="Layer_1"  >
<path style="stroke: rgb(0,0,0); stroke-width: 0.1; stroke-dasharray: none; stroke-linecap: butt; stroke-dashoffset: 0; stroke-linejoin: miter; stroke-miterlimit: 4; fill: rgb(82,84,101); fill-rule: nonzero; opacity: 1;"  transform=" translate(-456, -603.65)" d="M 456 603.3 c 0 0.2 0 0.5 0 0.7 C 456 603.7 456 603.5 456 603.3 z" stroke-linecap="round" />
</g>
		<g transform="matrix(1 0 0 1 -43.9 108.05)" id="Layer_1"  >
<path style="stroke: rgb(0,0,0); stroke-width: 0.1; stroke-dasharray: none; stroke-linecap: butt; stroke-dashoffset: 0; stroke-linejoin: miter; stroke-miterlimit: 4; fill: rgb(82,84,101); fill-rule: nonzero; opacity: 1;"  transform=" translate(-456.1, -608.05)" d="M 456.1 607.8 c 0 0.2 0 0.3 0 0.5 C 456.1 608.1 456.1 608 456.1 607.8 z" stroke-linecap="round" />
</g>
		<g transform="matrix(1 0 0 1 -104.15 -66.4)" id="Layer_1"  >
<path style="stroke: rgb(0,0,0); stroke-width: 0.1; stroke-dasharray: none; stroke-linecap: butt; stroke-dashoffset: 0; stroke-linejoin: miter; stroke-miterlimit: 4; fill: rgb(82,84,101); fill-rule: nonzero; opacity: 1;"  transform=" translate(-395.85, -433.6)" d="M 396.1 429.6 c 0 0 0 0.5 -0.5 8 C 395.9 432.5 396.1 429.6 396.1 429.6 z" stroke-linecap="round" />
</g>
		<g transform="matrix(1 0 0 1 -45 69.04)" id="Layer_1"  >
<path style="stroke: rgb(0,0,0); stroke-width: 0.1; stroke-dasharray: none; stroke-linecap: butt; stroke-dashoffset: 0; stroke-linejoin: miter; stroke-miterlimit: 4; fill: rgb(82,84,101); fill-rule: nonzero; opacity: 1;"  transform=" translate(-455, -569.04)" d="M 455 569 C 455 569.1 455 569.1 455 569 C 455 569.1 455 569.1 455 569 z" stroke-linecap="round" />
</g>
		<g transform="matrix(1 0 0 1 -44.96 69.85)" id="Layer_1"  >
<path style="stroke: rgb(0,0,0); stroke-width: 0.1; stroke-dasharray: none; stroke-linecap: butt; stroke-dashoffset: 0; stroke-linejoin: miter; stroke-miterlimit: 4; fill: rgb(82,84,101); fill-rule: nonzero; opacity: 1;"  transform=" translate(-455.04, -569.85)" d="M 455 569.3 c 0 0.3 0 0.7 0 1.1 C 455.1 570 455.1 569.6 455 569.3 z" stroke-linecap="round" />
</g>
		<g transform="matrix(1 0 0 1 116.05 -36.12)" id="Layer_1"  >
<path style="stroke: rgb(0,0,0); stroke-width: 0.1; stroke-dasharray: none; stroke-linecap: butt; stroke-dashoffset: 0; stroke-linejoin: miter; stroke-miterlimit: 4; fill: rgb(255,177,177); fill-rule: nonzero; opacity: 1;"  transform=" translate(-616.05, -463.88)" d="M 604.4 436.3 C 604.4 436.3 604.5 436.3 604.4 436.3 c 0 0 9.8 0.9 15.7 3.6 c 5.9 2.7 17.9 5 20.2 5.1 c 2.3 0.1 0.1 7.1 -8.3 6.6 c -8.4 -0.5 -11 0.8 -11 0.8 s 4.6 8.1 9.5 13.4 c 4.9 5.3 13 13.3 14.4 18.2 c 1.4 5 -0.3 7.9 -2.4 7.4 c -2 -0.4 -13.4 -5.4 -22 -4.2 c -8.6 1.2 -16.7 -8.4 -19.5 -12.6 c -2.8 -4.2 -14.6 -9.7 -14.3 -26.1 C 590.6 448 601.8 441.6 604.4 436.3 z" stroke-linecap="round" />
</g>
		<g transform="matrix(1 0 0 1 -43.25 -70.53)" id="Layer_1"  >
<path style="stroke: rgb(0,0,0); stroke-width: 0.1; stroke-dasharray: none; stroke-linecap: butt; stroke-dashoffset: 0; stroke-linejoin: miter; stroke-miterlimit: 4; fill: rgb(56,56,64); fill-rule: nonzero; opacity: 1;"  transform=" translate(-456.75, -429.47)" d="M 475.1 444.7 c -38.9 10.3 -70.4 4.9 -79.5 -7.1 c 0 0 0 0 0 0 c 0.5 -7.4 0.5 -7.9 0.5 -8 l 0 0 c 0 0 0 0.1 0.1 0.2 l 0 0 l 0 0 c 0 0.1 0.1 0.2 0.2 0.4 c 0 0 0 0.1 0 0.1 c 0.1 0.1 0.2 0.3 0.3 0.5 c 0 0 0 0 0 0.1 c 2.7 4.5 15.5 19.2 66 9.8 c 24.6 -4.4 42.1 -11.4 54.5 -31.9 l 0 0 c 0 0 0 0.1 0 0.2 c 0 0 0 0.1 0 0.1 c 0 0.1 0 0.3 0 0.5 c 0 0.1 0 0.2 0 0.2 c 0 0.3 0.1 0.6 0.1 1 c 0 0 0 0.1 0 0.1 c 0 0.4 0.1 0.9 0.1 1.4 c 0 0.2 0 0.4 0.1 0.7 c 0 0.3 0.1 0.7 0.1 1.1 c 0 0.3 0 0.6 0.1 1 c 0 0.5 0.1 0.9 0.1 1.4 c 0 0.3 0 0.5 0.1 0.8 C 518 417.1 513.9 434.3 475.1 444.7 z" stroke-linecap="round" />
</g>
		<g transform="matrix(1 0 0 1 -115.38 20.54)" id="Layer_1"  >
<path style="stroke: rgb(0,0,0); stroke-width: 0.1; stroke-dasharray: none; stroke-linecap: butt; stroke-dashoffset: 0; stroke-linejoin: miter; stroke-miterlimit: 4; fill: rgb(255,177,177); fill-rule: nonzero; opacity: 1;"  transform=" translate(-384.62, -520.54)" d="M 387.6 484.5 C 387.6 484.5 387.6 484.5 387.6 484.5 c 0 0 1.9 2.9 4.1 6.5 c 2.5 4.1 5.4 9.1 6.4 11.6 c 1.7 4.7 6.1 12.9 8.6 14.4 c 2.3 1.4 -5.3 7.9 -13.5 -3.4 c -0.6 -0.8 -1.2 -1.7 -1.7 -2.7 c 0.7 9.4 1.7 13.8 -0.1 21 c -1.7 7.2 -1.6 21.1 -0.9 23.5 c 0.8 2.4 -15.3 1.7 -20.4 -7.5 c -5.1 -9.3 -7.8 -9.5 -7.9 -14.9 c -0.1 -5.4 -0.7 -35.8 4.4 -47.4 c 0 0 0 0 0 0 c 2.6 1 6.4 2.1 11.2 1.8 C 382.4 487.3 385.5 485.9 387.6 484.5 z" stroke-linecap="round" />
</g>
		<g transform="matrix(1 0 0 1 -20.22 -139.52)" id="Layer_1"  >
<path style="stroke: rgb(0,0,0); stroke-width: 0.1; stroke-dasharray: none; stroke-linecap: butt; stroke-dashoffset: 0; stroke-linejoin: miter; stroke-miterlimit: 4; fill: rgb(225,228,232); fill-rule: nonzero; opacity: 1;"  transform=" translate(-479.78, -360.48)" d="M 362.5 465.6 c -8.8 -3.7 -9.2 -75.2 -6.4 -109.1 c 13.6 -70.8 27.5 -79.2 37.5 -84.6 c 11.3 -13.8 39.6 -26.6 39.6 -26.6 c -0.7 3.8 -0.9 8.7 0.7 14 c 3.6 12 20.7 24.3 20.7 24.3 s 4.7 -1.1 6.3 -8.4 c 0.2 -0.8 0.4 -1.6 0.6 -2.4 c 0.5 1.7 5.1 3.3 5.1 3.3 s 1.1 14.7 3.3 43.1 c 2.2 28.5 -0.2 88 0 91.2 c 0.2 3.2 12.1 14 14.4 14 c 2.3 0 7.4 -10.3 10 -17.7 c 2.6 -7.3 -17.9 -121.6 -20.2 -133.2 c 3.8 -2.7 4.3 -9.5 4.3 -9.5 c 1.9 4.3 3.4 9.5 3.4 9.5 s 3 -8.1 0.4 -19.5 c -2.6 -11.4 -9.4 -16.2 -9.4 -16.2 l 0 0 c 7 0.1 13.4 -1.3 17.1 -3.3 c 58 -11.6 47.6 64.2 64.5 107 c 2.1 9.9 35.2 56.2 39.2 62.7 c 4 6.5 0.4 12 0.4 12 s 7.3 11.3 10.6 16.6 c 0.6 1.1 0.5 2.3 -0.2 3.6 c -2.7 5.3 -13.8 11.7 -17.7 12.1 c -4.9 0.5 -10.2 -7.5 -16.3 -16.8 c -15.1 2.2 -40.2 -47 -49.7 -66.9 c 3.1 6.5 7.8 16.1 13.4 26 c -0.2 -0.5 -6.9 -13.8 -7.7 -36.5 c -0.9 -23.1 -1.5 -67.3 -6.5 -83.9 c 0 0 6 46.1 -1.5 61 c -0.2 10.1 -1.5 25.2 -1.5 25.2 s -1.9 13.7 -1.3 21.5 c 0.6 7.8 5.3 24.7 2.4 29.4 c -0.2 0.4 -0.5 0.8 -0.7 1.2 c -12.4 20.5 -30 27.5 -54.5 31.9 c -50.5 9.4 -63.3 -5.3 -66 -9.8 c 0.8 1.3 2.4 3.4 5.4 5.5 c 0 0 2.4 -34.2 0.6 -56.8 c -0.3 -8.7 6.5 -46.6 11 -59.2 c 0 0 -16.2 44.3 -16.2 48.8 c 0 4.5 -1.5 60.5 -1.5 60.5 l 0 0 c 0 0 -0.2 2.9 -0.5 8 c 0 0 0 0 0 0 c -0.2 3.3 -0.4 7.6 -0.6 12.6 c -0.5 12.4 -4.6 14.5 -4.6 14.5 l 0.4 17.1 c 0 0 -1 1.4 -3.2 2.8 c -2.1 1.4 -5.2 2.7 -9.7 3 c -4.8 0.3 -8.6 -0.7 -11.2 -1.8 c -2.3 -0.9 -3.7 -1.9 -3.7 -1.9 S 362.5 476.3 362.5 465.6 z" stroke-linecap="round" />
</g>
		<g transform="matrix(1 0 0 1 17.85 -141.25)" id="Layer_1"  >
<path style="stroke: rgb(0,0,0); stroke-width: 0.1; stroke-dasharray: none; stroke-linecap: butt; stroke-dashoffset: 0; stroke-linejoin: miter; stroke-miterlimit: 4; fill: rgb(225,228,232); fill-rule: nonzero; opacity: 1;"  transform=" translate(-517.85, -358.75)" d="M 517.6 358.2 c 0.1 0.3 0.3 0.7 0.5 1.1 C 517.9 358.9 517.8 358.5 517.6 358.2 z" stroke-linecap="round" />
</g>
		<g transform="matrix(1 0 0 1 17.25 -142.7)" id="Layer_1"  >
<path style="stroke: rgb(0,0,0); stroke-width: 0.1; stroke-dasharray: none; stroke-linecap: butt; stroke-dashoffset: 0; stroke-linejoin: miter; stroke-miterlimit: 4; fill: rgb(225,228,232); fill-rule: nonzero; opacity: 1;"  transform=" translate(-517.25, -357.3)" d="M 516.9 356.5 c 0 0 0.2 0.6 0.7 1.6 C 517.1 357.1 516.9 356.5 516.9 356.5 z" stroke-linecap="round" />
</g>
		<g transform="matrix(1 0 0 1 19.3 -138.25)" id="Layer_1"  >
<path style="stroke: rgb(0,0,0); stroke-width: 0.1; stroke-dasharray: none; stroke-linecap: butt; stroke-dashoffset: 0; stroke-linejoin: miter; stroke-miterlimit: 4; fill: rgb(225,228,232); fill-rule: nonzero; opacity: 1;"  transform=" translate(-519.3, -361.75)" d="M 518.9 360.9 c 0.2 0.5 0.5 1.1 0.8 1.7 C 519.4 362 519.1 361.4 518.9 360.9 z" stroke-linecap="round" />
</g>
		<g transform="matrix(1 0 0 1 18.55 -139.85)" id="Layer_1"  >
<path style="stroke: rgb(0,0,0); stroke-width: 0.1; stroke-dasharray: none; stroke-linecap: butt; stroke-dashoffset: 0; stroke-linejoin: miter; stroke-miterlimit: 4; fill: rgb(225,228,232); fill-rule: nonzero; opacity: 1;"  transform=" translate(-518.55, -360.15)" d="M 518.2 359.4 c 0.2 0.4 0.4 0.9 0.7 1.5 C 518.6 360.3 518.4 359.8 518.2 359.4 z" stroke-linecap="round" />
</g>
		<g transform="matrix(1 0 0 1 20.15 -136.3)" id="Layer_1"  >
<path style="stroke: rgb(0,0,0); stroke-width: 0.1; stroke-dasharray: none; stroke-linecap: butt; stroke-dashoffset: 0; stroke-linejoin: miter; stroke-miterlimit: 4; fill: rgb(225,228,232); fill-rule: nonzero; opacity: 1;"  transform=" translate(-520.15, -363.7)" d="M 519.7 362.7 c 0.3 0.6 0.6 1.3 0.9 2 C 520.3 364 520 363.3 519.7 362.7 z" stroke-linecap="round" />
</g>
		<g transform="matrix(1 0 0 1 -103.7 -70)" id="Layer_1"  >
<path style="stroke: rgb(0,0,0); stroke-width: 0.1; stroke-dasharray: none; stroke-linecap: butt; stroke-dashoffset: 0; stroke-linejoin: miter; stroke-miterlimit: 4; fill: rgb(225,228,232); fill-rule: nonzero; opacity: 1;"  transform=" translate(-396.3, -430)" d="M 396.2 429.8 c 0 0.1 0.1 0.2 0.2 0.4 C 396.3 430 396.2 429.9 396.2 429.8 z" stroke-linecap="round" />
</g>
		<g transform="matrix(1 0 0 1 -103.85 -70.3)" id="Layer_1"  >
<path style="stroke: rgb(0,0,0); stroke-width: 0.1; stroke-dasharray: none; stroke-linecap: butt; stroke-dashoffset: 0; stroke-linejoin: miter; stroke-miterlimit: 4; fill: rgb(225,228,232); fill-rule: nonzero; opacity: 1;"  transform=" translate(-396.15, -429.7)" d="M 396.1 429.6 l 0.1 0.2 C 396.1 429.7 396.1 429.6 396.1 429.6 z" stroke-linecap="round" />
</g>
		<g transform="matrix(1 0 0 1 -103.45 -69.45)" id="Layer_1"  >
<path style="stroke: rgb(0,0,0); stroke-width: 0.1; stroke-dasharray: none; stroke-linecap: butt; stroke-dashoffset: 0; stroke-linejoin: miter; stroke-miterlimit: 4; fill: rgb(225,228,232); fill-rule: nonzero; opacity: 1;"  transform=" translate(-396.55, -430.55)" d="M 396.4 430.3 c 0.1 0.1 0.2 0.3 0.3 0.5 C 396.6 430.6 396.5 430.4 396.4 430.3 z" stroke-linecap="round" />
</g>
		<g transform="matrix(1 0 0 1 -44.84 -261.55)" id="Layer_1"  >
<path style="stroke: rgb(0,0,0); stroke-width: 0.1; stroke-dasharray: none; stroke-linecap: butt; stroke-dashoffset: 0; stroke-linejoin: miter; stroke-miterlimit: 4; fill: rgb(255,153,153); fill-rule: nonzero; opacity: 1;"  transform=" translate(-455.16, -238.45)" d="M 472.8 237.7 L 472.8 237.7 c 3.5 7.8 2.4 13.7 -1.3 17.1 s -4 8.2 -4 8.2 c -1.8 -4 -11.2 -4.7 -21.3 -9.2 s -10.5 -16.1 -10.5 -16.1 l -0.3 -23.8 c 0 0 0 0 8.8 11.6 C 451.3 234.5 462.8 237.6 472.8 237.7 z" stroke-linecap="round" />
</g>
		<g transform="matrix(1 0 0 1 -42.17 -298.55)" id="Layer_1"  >
<path style="stroke: rgb(0,0,0); stroke-width: 0.1; stroke-dasharray: none; stroke-linecap: butt; stroke-dashoffset: 0; stroke-linejoin: miter; stroke-miterlimit: 4; fill: rgb(255,177,177); fill-rule: nonzero; opacity: 1;"  transform=" translate(-457.83, -201.45)" d="M 472.8 237.7 c -10.1 -0.1 -21.5 -3.2 -28.6 -12.1 c -8.8 -11.6 -8.8 -11.6 -8.8 -11.6 s -12.7 -0.6 -16 -8.6 c -3 -7.3 1.7 -13.1 1.7 -13.1 c 3.1 -1.5 7.3 -2.3 10 4.2 c 1.9 6.5 3.1 10.7 3.1 10.7 l 4 -1.1 c 0 0 -3.1 -23.3 0 -24.4 c 3.1 -1.1 19.9 -5.3 1.3 -16.5 c 0 0 30.1 15.5 53.2 1.1 c 0 0 3.4 8.4 2.1 22.1 c 1.3 8.4 6.9 36.9 -5 46.1 C 486.2 236.4 479.9 237.8 472.8 237.7 z" stroke-linecap="round" />
</g>
		<g transform="matrix(1 0 0 1 -44.26 -331.78)" id="Layer_1"  >
<path style="stroke: rgb(0,0,0); stroke-width: 0.1; stroke-dasharray: none; stroke-linecap: butt; stroke-dashoffset: 0; stroke-linejoin: miter; stroke-miterlimit: 4; fill: rgb(103,87,85); fill-rule: nonzero; opacity: 1;"  transform=" translate(-455.74, -168.22)" d="M 439.6 165.1 c 18.6 11.2 1.8 15.4 -1.3 16.5 c -3.1 1.1 0 24.4 0 24.4 l -4 1.1 c 0 0 -1.1 -4.2 -3.1 -10.7 c -2.7 -6.5 -7 -5.7 -10 -4.2 c -12 -21.3 -8.7 -39.4 -3.2 -41.5 c 4.9 -30.1 56.9 -23.3 69.5 -10.5 c 16.2 4.5 11.2 23 5.3 26 C 469.7 180.6 439.6 165.1 439.6 165.1 z" stroke-linecap="round" />
</g>
		<g transform="matrix(1 0 0 1 -21.89 -158.86)" id="Layer_1"  >
<path style="stroke: rgb(0,0,0); stroke-width: 0.1; stroke-dasharray: none; stroke-linecap: butt; stroke-dashoffset: 0; stroke-linejoin: miter; stroke-miterlimit: 4; fill: rgb(73,71,91); fill-rule: nonzero; opacity: 1;"  transform=" translate(-478.11, -341.14)" d="M 467.6 263 c 0 0 3 -4.5 6.3 -5 c 1.4 -0.2 3.1 2.6 4.6 5.9 c 0 0 -0.6 6.8 -4.3 9.5 c 2.3 11.6 22.7 125.9 20.2 133.2 c -2.6 7.3 -7.6 17.7 -10 17.7 c -2.3 0 -14.2 -10.8 -14.4 -14 c -0.2 -3.2 2.2 -62.7 0 -91.2 c -2.2 -28.5 -3.3 -43.1 -3.3 -43.1 s -4.6 -1.6 -5.1 -3.3 C 462.9 267 464.6 263.9 467.6 263 z" stroke-linecap="round" />
</g>
		<g transform="matrix(1 0 0 1 -49.96 -239.4)" id="Layer_1"  >
<path style="stroke: rgb(0,0,0); stroke-width: 0.1; stroke-dasharray: none; stroke-linecap: butt; stroke-dashoffset: 0; stroke-linejoin: miter; stroke-miterlimit: 4; fill: rgb(245,246,247); fill-rule: nonzero; opacity: 1;"  transform=" translate(-450.04, -260.6)" d="M 446.2 253.8 c 10.2 4.5 19.6 5.2 21.3 9.2 c -3 0.9 -4.6 4 -6.1 9.7 c -0.2 0.8 -0.4 1.5 -0.6 2.4 c -1.6 7.3 -6.3 8.4 -6.3 8.4 s -17.1 -12.3 -20.7 -24.3 c -1.6 -5.4 -1.4 -10.3 -0.7 -14 c 0.9 -4.6 2.5 -7.5 2.5 -7.5 S 436 249.3 446.2 253.8 z" stroke-linecap="round" />
</g>
		<g transform="matrix(1 0 0 1 -24.52 -244.35)" id="Layer_1"  >
<path style="stroke: rgb(0,0,0); stroke-width: 0.1; stroke-dasharray: none; stroke-linecap: butt; stroke-dashoffset: 0; stroke-linejoin: miter; stroke-miterlimit: 4; fill: rgb(245,246,247); fill-rule: nonzero; opacity: 1;"  transform=" translate(-475.48, -255.65)" d="M 473.9 258.1 c -3.3 0.4 -6.3 5 -6.3 5 s 0.4 -4.7 4 -8.2 s 4.7 -9.3 1.3 -17.1 c 0 0 6.8 4.8 9.4 16.2 c 2.6 11.4 -0.4 19.5 -0.4 19.5 s -1.5 -5.1 -3.4 -9.5 C 477 260.7 475.3 257.9 473.9 258.1 z" stroke-linecap="round" />
</g>
		<g transform="matrix(1 0 0 1 -95.05 -121.6)" id="Layer_1"  >
<path style="stroke: rgb(0,0,0); stroke-width: 0.1; stroke-dasharray: none; stroke-linecap: butt; stroke-dashoffset: 0; stroke-linejoin: miter; stroke-miterlimit: 4; fill: rgb(184,186,191); fill-rule: nonzero; opacity: 1;"  transform=" translate(-404.95, -378.4)" d="M 396.4 430.3 C 396.4 430.2 396.4 430.2 396.4 430.3 c -0.1 -0.2 -0.2 -0.4 -0.2 -0.4 l 0 0 l 0 0 l -0.1 -0.2 c 0 0 1.5 -55.9 1.5 -60.5 c 0 -4.5 16.2 -48.8 16.2 -48.8 c -4.5 12.6 -11.3 50.4 -11 59.2 c 1.7 22.7 -0.6 56.8 -0.6 56.8 c -3 -2.1 -4.6 -4.2 -5.4 -5.5 c 0 0 0 0 0 -0.1 C 396.6 430.6 396.5 430.4 396.4 430.3 z" stroke-linecap="round" />
</g>
		<g transform="matrix(1 0 0 1 25.45 -169.5)" id="Layer_1"  >
<path style="stroke: rgb(0,0,0); stroke-width: 0.1; stroke-dasharray: none; stroke-linecap: butt; stroke-dashoffset: 0; stroke-linejoin: miter; stroke-miterlimit: 4; fill: rgb(184,186,191); fill-rule: nonzero; opacity: 1;"  transform=" translate(-525.45, -330.5)" d="M 519.9 270.3 c 5 16.6 5.6 60.8 6.5 83.9 c 0.8 22.7 7.5 36.1 7.7 36.5 c -5.5 -9.9 -10.3 -19.5 -13.4 -26 c 0 0 0 0 0 0 c -0.3 -0.7 -0.6 -1.4 -0.9 -2 c 0 0 0 -0.1 -0.1 -0.1 c -0.3 -0.6 -0.6 -1.2 -0.8 -1.7 c 0 0 0 0 0 0 c -0.2 -0.5 -0.5 -1 -0.7 -1.5 c 0 0 0 -0.1 -0.1 -0.1 c -0.2 -0.4 -0.4 -0.8 -0.5 -1.1 c 0 0 0 -0.1 -0.1 -0.1 c -0.5 -1 -0.7 -1.6 -0.7 -1.6 s 1.3 -15.1 1.5 -25.2 C 525.9 316.4 519.9 270.3 519.9 270.3 z" stroke-linecap="round" />
</g>
		<g transform="matrix(1 0 0 1 -34.25 61.95)" id="Layer_1"  >
<path style="stroke: rgb(0,0,0); stroke-width: 0.1; stroke-dasharray: none; stroke-linecap: butt; stroke-dashoffset: 0; stroke-linejoin: miter; stroke-miterlimit: 4; fill: rgb(56,55,69); fill-rule: nonzero; opacity: 1;"  transform=" translate(-465.75, -561.95)" d="M 462.6 509.4 l 13.2 -6.8 l -19.7 118.7 l 0 0 c 0 0 0 -0.1 0 -0.1 c 0 -2.1 0 -4.4 0 -6.9 c 0 -0.1 0 -0.2 0 -0.2 c 0 -0.5 0 -1.1 0 -1.6 c 0 -0.1 0 -0.3 0 -0.4 c 0 -0.6 0 -1.1 0 -1.7 c 0 -0.1 0 -0.3 0 -0.4 c 0 -0.6 0 -1.1 0 -1.7 c 0 -0.2 0 -0.3 0 -0.5 c 0 -0.5 0 -1.1 0 -1.6 c 0 -0.2 0 -0.4 0 -0.6 c 0 -0.5 0 -1.1 0 -1.6 c 0 -0.2 0 -0.5 0 -0.7 c 0 -0.5 0 -1 0 -1.5 c 0 -0.3 0 -0.5 0 -0.8 c 0 -0.5 0 -1.1 0 -1.6 c 0 -0.2 0 -0.4 0 -0.6 c 0 -0.6 0 -1.1 0 -1.7 c 0 -0.2 0 -0.5 0 -0.7 c 0 -0.5 0 -1 0 -1.5 c 0 -0.2 0 -0.4 0 -0.7 c 0 -0.6 0 -1.1 0 -1.7 c 0 0 0 0 0 0 c 0 -0.7 0 -1.4 -0.1 -2.1 c 0 0 0 0 0 0 c -0.1 -2.6 -0.1 -5.1 -0.2 -7.5 c 0 -0.3 0 -0.5 0 -0.8 c 0 -0.4 0 -0.8 0 -1.2 c 0 -0.2 0 -0.4 0 -0.6 c 0 -0.4 0 -0.8 0 -1.2 c 0 -0.3 0 -0.5 0 -0.8 c 0 -0.3 0 -0.5 0 -0.7 c 0 -0.3 0 -0.6 0 -0.9 c 0 -0.4 0 -0.9 0 -1.3 c 0 0 0 0 0 0 c 0 -0.4 0 -0.9 0 -1.3 c 0 -0.2 0 -0.3 0 -0.5 c 0 -0.2 0 -0.3 0 -0.5 c 0 -0.3 0 -0.6 0 -0.8 c 0 -0.8 0 -1.4 -0.1 -2 c 0 -0.4 0 -0.8 0 -1.1 c 0 0 0 -0.1 0 -0.1 c 0 0 0 -0.1 0 -0.1 c 0 -0.3 0 -0.5 0 -0.6 c 0 -0.2 0 -0.3 0 -0.3 L 462.6 509.4 z" stroke-linecap="round" />
</g>
</g>
</g>
<g transform="matrix(0.25 0 0 0.25 422.64 248.47)"  >
<g style=""   >
		<g transform="matrix(1 0 0 1 -187.95 -211.75)" id="Layer_1"  >
<path style="stroke: rgb(0,0,0); stroke-width: 0.1; stroke-dasharray: none; stroke-linecap: butt; stroke-dashoffset: 0; stroke-linejoin: miter; stroke-miterlimit: 4; fill: rgb(249,185,168); fill-rule: nonzero; opacity: 1;"  transform=" translate(-312.05, -288.25)" d="M 309 263.9 c 0 0 -7.7 2.8 0.8 6.4 c 0 0 8.1 4.6 13.4 8.6 c 0 0.1 0.9 1.1 -0.7 1.2 l 0 0 c -5.9 -2.4 -17.4 -5.5 -33.3 -2.6 c 0 0 -10.1 2.3 -8.9 16.5 c 0.8 10 8.1 14.6 15.7 13.6 c 7.6 -1.1 11.1 -1.1 19.3 0.1 c 7.6 1.1 17.6 6.9 25.4 4.2 l 3.2 -28.3 C 343.9 283.6 328.3 266.5 309 263.9 z" stroke-linecap="round" />
</g>
		<g transform="matrix(1 0 0 1 86.29 388.57)" id="Layer_1"  >
<path style="stroke: rgb(0,0,0); stroke-width: 0.1; stroke-dasharray: none; stroke-linecap: butt; stroke-dashoffset: 0; stroke-linejoin: miter; stroke-miterlimit: 4; fill: rgb(90,116,183); fill-rule: nonzero; opacity: 1;"  transform=" translate(-586.29, -888.57)" d="M 541.3 896.6 c 7.1 -7.3 35 -21.9 38.2 -24.8 c 3.2 -2.9 0.5 -15.7 0.5 -15.7 l 50.5 -5 c 8 25.8 5 50 5 50 c -29.7 13.4 -77.6 26.5 -89.4 24.8 C 534.4 924.2 534.2 903.9 541.3 896.6 z" stroke-linecap="round" />
</g>
		<g transform="matrix(1 0 0 1 87.3 409.77)" id="Layer_1"  >
<path style="stroke: rgb(0,0,0); stroke-width: 0.1; stroke-dasharray: none; stroke-linecap: butt; stroke-dashoffset: 0; stroke-linejoin: miter; stroke-miterlimit: 4; fill: rgb(89,85,157); fill-rule: nonzero; opacity: 1;"  transform=" translate(-587.3, -909.77)" d="M 538.6 920.1 c 50.4 -5.2 85.9 -20.8 97.4 -26.5 c -0.1 4.6 -0.5 7.4 -0.5 7.4 c -29.7 13.4 -77.6 26.5 -89.4 24.8 C 542.6 925.4 540.2 923.2 538.6 920.1 z" stroke-linecap="round" />
</g>
		<g transform="matrix(1 0 0 1 -27.96 375.25)" id="Layer_1"  >
<path style="stroke: rgb(0,0,0); stroke-width: 0.1; stroke-dasharray: none; stroke-linecap: butt; stroke-dashoffset: 0; stroke-linejoin: miter; stroke-miterlimit: 4; fill: rgb(90,116,183); fill-rule: nonzero; opacity: 1;"  transform=" translate(-472.04, -875.25)" d="M 427.2 879.6 c 7.6 -6.8 36.5 -19.2 39.9 -21.9 c 3.4 -2.7 1.7 -15.6 1.7 -15.6 l 50.8 -1.3 c 6.1 26.3 1.4 50.3 1.4 50.3 c -30.6 11.2 -79.4 20.7 -91 18.2 C 418.3 906.7 419.6 886.4 427.2 879.6 z" stroke-linecap="round" />
</g>
		<g transform="matrix(1 0 0 1 -27.75 396.7)" id="Layer_1"  >
<path style="stroke: rgb(0,0,0); stroke-width: 0.1; stroke-dasharray: none; stroke-linecap: butt; stroke-dashoffset: 0; stroke-linejoin: miter; stroke-miterlimit: 4; fill: rgb(89,85,157); fill-rule: nonzero; opacity: 1;"  transform=" translate(-472.25, -896.7)" d="M 422.7 902.9 c 50.6 -1.5 87.2 -14.4 99.1 -19.2 c -0.5 4.6 -1 7.4 -1 7.4 c -30.6 11.2 -79.4 20.7 -91 18.2 C 426.4 908.4 424.1 906 422.7 902.9 z" stroke-linecap="round" />
</g>
		<g transform="matrix(1 0 0 1 -153.38 -201.4)" id="Layer_1"  >
<path style="stroke: rgb(0,0,0); stroke-width: 0.1; stroke-dasharray: none; stroke-linecap: butt; stroke-dashoffset: 0; stroke-linejoin: miter; stroke-miterlimit: 4; fill: rgb(228,229,230); fill-rule: nonzero; opacity: 1;"  transform=" translate(-346.62, -298.6)" d="M 349.6 315.8 l -11.2 -2.1 c 0 0 -3.1 -17.9 5.3 -32.3 l 11.7 1 L 349.6 315.8 z" stroke-linecap="round" />
</g>
		<g transform="matrix(1 0 0 1 -75.79 -240.95)" id="Layer_1"  >
<path style="stroke: rgb(0,0,0); stroke-width: 0.1; stroke-dasharray: none; stroke-linecap: butt; stroke-dashoffset: 0; stroke-linejoin: miter; stroke-miterlimit: 4; fill: rgb(80,88,145); fill-rule: nonzero; opacity: 1;"  transform=" translate(-424.21, -259.05)" d="M 474.9 176.1 c 0 0 -17.6 56.1 -30.3 115.3 l -91.5 -10.5 c 0 0 -11.3 9.8 -8.1 35.3 l 128.3 25.8 L 504 218.8 L 474.9 176.1 z" stroke-linecap="round" />
</g>
		<g transform="matrix(1 0 0 1 48.2 -348.45)" id="Layer_1"  >
<polygon style="stroke: rgb(0,0,0); stroke-width: 0.1; stroke-dasharray: none; stroke-linecap: butt; stroke-dashoffset: 0; stroke-linejoin: miter; stroke-miterlimit: 4; fill: rgb(187,188,190); fill-rule: nonzero; opacity: 1;"  points="-30,0.35 8.6,-9.55 30,-6.95 21,5.95 -23.8,9.55 " />
</g>
		<g transform="matrix(1 0 0 1 48.37 -333.35)" id="Layer_1"  >
<path style="stroke: rgb(0,0,0); stroke-width: 0.1; stroke-dasharray: none; stroke-linecap: butt; stroke-dashoffset: 0; stroke-linejoin: miter; stroke-miterlimit: 4; fill: rgb(246,163,168); fill-rule: nonzero; opacity: 1;"  transform=" translate(-548.37, -166.65)" d="M 589.2 158.8 c -11.7 -4.8 -12.7 -8.4 -12.7 -8.4 c -3.2 -12.6 -3.8 -24.1 -3.8 -24.1 l -53.4 11.3 c 1.1 4 1.1 10.6 0.7 17.4 c 0.3 4.5 -4.6 4.2 -4.6 4.2 l -8.2 5.8 l -3.2 24 l 41.8 18 l 34.1 -17.8 C 579.8 189.2 600.9 163.6 589.2 158.8 z" stroke-linecap="round" />
</g>
		<g transform="matrix(1 0 0 1 10.57 128.54)" id="Layer_1"  >
<path style="stroke: rgb(0,0,0); stroke-width: 0.1; stroke-dasharray: none; stroke-linecap: butt; stroke-dashoffset: 0; stroke-linejoin: miter; stroke-miterlimit: 4; fill: rgb(63,73,122); fill-rule: nonzero; opacity: 1;"  transform=" translate(-510.57, -628.54)" d="M 475.5 423.4 c 0 0 -17.3 227.5 -15.3 418.4 c 0 0 26.3 18.8 66.2 2.9 c 0 0 4.1 -256.2 18.1 -360.5 l 16.6 -37.6 l -7.8 -23.6 L 480.7 406 L 475.5 423.4 z" stroke-linecap="round" />
</g>
		<g transform="matrix(1 0 0 1 89.95 139.43)" id="Layer_1"  >
<path style="stroke: rgb(0,0,0); stroke-width: 0.1; stroke-dasharray: none; stroke-linecap: butt; stroke-dashoffset: 0; stroke-linejoin: miter; stroke-miterlimit: 4; fill: rgb(63,73,122); fill-rule: nonzero; opacity: 1;"  transform=" translate(-589.95, -639.43)" d="M 622.5 415 c 0 0 2.4 192 3 217.7 c 0.6 25.7 12.7 216.2 12.7 216.2 s -17.3 23.2 -67.4 11.8 l -14.6 -206.1 l -12.6 -178.1 l -1.9 -34.1 L 622.5 415 z" stroke-linecap="round" />
</g>
		<g transform="matrix(1 0 0 1 28.25 -81.33)" id="Layer_1"  >
<path style="stroke: rgb(0,0,0); stroke-width: 0.1; stroke-dasharray: none; stroke-linecap: butt; stroke-dashoffset: 0; stroke-linejoin: miter; stroke-miterlimit: 4; fill: rgb(108,76,158); fill-rule: nonzero; opacity: 1;"  transform=" translate(-528.25, -418.67)" d="M 559.3 430.1 c 0 0 -32.3 5.9 -62.1 -8 l 4.2 -16.1 l 57.9 7.7 V 430.1 z" stroke-linecap="round" />
</g>
		<g transform="matrix(1 0 0 1 43.75 -214.59)" id="Layer_1"  >
<path style="stroke: rgb(0,0,0); stroke-width: 0.1; stroke-dasharray: none; stroke-linecap: butt; stroke-dashoffset: 0; stroke-linejoin: miter; stroke-miterlimit: 4; fill: rgb(228,229,230); fill-rule: nonzero; opacity: 1;"  transform=" translate(-543.75, -285.41)" d="M 583 152.5 l -5.1 2.7 c -64.4 48.1 -58.2 3.3 -58.2 3.3 l -4.3 0.6 L 503.5 172 l -10.2 -2.1 l 9.5 238.7 c 32.4 14.3 57.6 8.6 57.6 8.6 l 17.8 -64.3 l 16 -182.9 L 583 152.5 z" stroke-linecap="round" />
</g>
		<g transform="matrix(1 0 0 1 37.5 -315.4)" id="Layer_1"  >
<polygon style="stroke: rgb(0,0,0); stroke-width: 0.1; stroke-dasharray: none; stroke-linecap: butt; stroke-dashoffset: 0; stroke-linejoin: miter; stroke-miterlimit: 4; fill: rgb(108,76,158); fill-rule: nonzero; opacity: 1;"  points="1.3,-11.9 -13.5,-0.3 -7,10.5 5.5,11.9 13.5,3.3 " />
</g>
		<g transform="matrix(1 0 0 1 32.45 -213.4)" id="Layer_1"  >
<polygon style="stroke: rgb(0,0,0); stroke-width: 0.1; stroke-dasharray: none; stroke-linecap: butt; stroke-dashoffset: 0; stroke-linejoin: miter; stroke-miterlimit: 4; fill: rgb(108,76,158); fill-rule: nonzero; opacity: 1;"  points="-1.95,-91.5 -15.85,68.1 -8.85,91.5 15.85,67.7 10.55,-90.1 " />
</g>
		<g transform="matrix(1 0 0 1 82.5 -193.25)" id="Layer_1"  >
<path style="stroke: rgb(0,0,0); stroke-width: 0.1; stroke-dasharray: none; stroke-linecap: butt; stroke-dashoffset: 0; stroke-linejoin: miter; stroke-miterlimit: 4; fill: rgb(80,88,145); fill-rule: nonzero; opacity: 1;"  transform=" translate(-582.5, -306.75)" d="M 639.1 181.4 c 0 0 -10 -7 -57.1 -27.3 c 0 0 -35 85.9 -52.3 163.6 l -3.8 99.6 l 29 42.1 c 0 0 64 -7.2 74.1 -15.1 C 628.9 444.3 624.2 271.8 639.1 181.4 z" stroke-linecap="round" />
</g>
		<g transform="matrix(1 0 0 1 1.59 -195.6)" id="Layer_1"  >
<path style="stroke: rgb(0,0,0); stroke-width: 0.1; stroke-dasharray: none; stroke-linecap: butt; stroke-dashoffset: 0; stroke-linejoin: miter; stroke-miterlimit: 4; fill: rgb(80,88,145); fill-rule: nonzero; opacity: 1;"  transform=" translate(-501.59, -304.4)" d="M 532.5 328.1 l -2.8 -10.4 c -5.1 -76.8 -10.2 -161 -10.2 -161 l -44.5 19.4 c -11.1 120.4 -5.7 259.8 -5.7 259.8 c 10.1 7.9 38.6 16.2 38.6 16.2 l 13.3 -35.1 l 14 -41.1 L 532.5 328.1 z" stroke-linecap="round" />
</g>
		<g transform="matrix(1 0 0 1 63.15 -331)" id="Layer_1"  >
<polygon style="stroke: rgb(0,0,0); stroke-width: 0.1; stroke-dasharray: none; stroke-linecap: butt; stroke-dashoffset: 0; stroke-linejoin: miter; stroke-miterlimit: 4; fill: rgb(240,240,240); fill-rule: nonzero; opacity: 1;"  points="15.05,-24.4 24.35,-13.9 -11.45,24.4 -24.35,3.7 " />
</g>
		<g transform="matrix(1 0 0 1 26.6 -328.05)" id="Layer_1"  >
<polygon style="stroke: rgb(0,0,0); stroke-width: 0.1; stroke-dasharray: none; stroke-linecap: butt; stroke-dashoffset: 0; stroke-linejoin: miter; stroke-miterlimit: 4; fill: rgb(240,240,240); fill-rule: nonzero; opacity: 1;"  points="-8.4,-20.05 -12.2,-13.45 -6.4,20.05 12.2,0.75 " />
</g>
		<g transform="matrix(1 0 0 1 45.97 -408.69)" id="Layer_1"  >
<path style="stroke: rgb(0,0,0); stroke-width: 0.1; stroke-dasharray: none; stroke-linecap: butt; stroke-dashoffset: 0; stroke-linejoin: miter; stroke-miterlimit: 4; fill: rgb(249,185,168); fill-rule: nonzero; opacity: 1;"  transform=" translate(-545.97, -91.31)" d="M 593.5 113.2 c 0 0 -8.4 41.6 -49.8 41.7 c -47.8 0.2 -52 -57.5 -46.6 -84.6 c 5.1 -25.4 37.2 -55.6 70.7 -36.6 C 593 48 602.1 75.1 593.5 113.2 z" stroke-linecap="round" />
</g>
		<g transform="matrix(1 0 0 1 -2.9 -104.4)" id="Layer_1"  >
<linearGradient id="SVGID_SVGID_1__9" gradientUnits="userSpaceOnUse" gradientTransform="matrix(1 0 0 1 -497.1 -395.6)"  x1="437.8051" y1="395.6055" x2="556.4101" y2="395.6055">
<stop offset="0%" style="stop-color:rgb(206,212,232);stop-opacity: 1"/>
<stop offset="100%" style="stop-color:rgb(240,240,243);stop-opacity: 1"/>
</linearGradient>
<polygon style="stroke: rgb(0,0,0); stroke-width: 0.1; stroke-dasharray: none; stroke-linecap: butt; stroke-dashoffset: 0; stroke-linejoin: miter; stroke-miterlimit: 4; fill: url(#SVGID_SVGID_1__9); fill-rule: nonzero; opacity: 1;"  points="59.3,53.1 -30.9,73.4 -59.3,-53.1 30.9,-73.4 " />
</g>
		<g transform="matrix(1 0 0 1 37.5 -92.46)" id="Layer_1"  >
<path style="stroke: rgb(0,0,0); stroke-width: 0.1; stroke-dasharray: none; stroke-linecap: butt; stroke-dashoffset: 0; stroke-linejoin: miter; stroke-miterlimit: 4; fill: rgb(249,185,168); fill-rule: nonzero; opacity: 1;"  transform=" translate(-537.5, -407.54)" d="M 571 410.2 c -3.1 -21.7 -13.9 -25.5 -13.9 -25.5 s -15.3 -0.9 -26.8 0.6 c -11.5 1.5 -12.9 5.2 -12.9 5.2 s -0.8 6.1 8.3 4.2 c 9.2 -2 12.4 1.8 12.4 1.8 s -9.4 7.3 -28.9 11.6 c 0 0 -9.5 6 -2.8 14.6 c 6.7 8.6 11.3 8.9 23.7 7 c 12.4 -1.8 18.6 -3.5 36.4 -17.7 C 568.1 411.4 569.5 410.8 571 410.2 z" stroke-linecap="round" />
</g>
		<g transform="matrix(1 0 0 1 68.4 -104.35)" id="Layer_1"  >
<path style="stroke: rgb(0,0,0); stroke-width: 0.1; stroke-dasharray: none; stroke-linecap: butt; stroke-dashoffset: 0; stroke-linejoin: miter; stroke-miterlimit: 4; fill: rgb(228,229,230); fill-rule: nonzero; opacity: 1;"  transform=" translate(-568.4, -395.65)" d="M 581.7 410.9 l -10.5 4.5 c 0 0 -13.9 -15.1 -16.1 -33.7 l 10.2 -5.8 L 581.7 410.9 z" stroke-linecap="round" />
</g>
		<g transform="matrix(1 0 0 1 129.53 -202.7)" id="Layer_1"  >
<path style="stroke: rgb(0,0,0); stroke-width: 0.1; stroke-dasharray: none; stroke-linecap: butt; stroke-dashoffset: 0; stroke-linejoin: miter; stroke-miterlimit: 4; fill: rgb(80,88,145); fill-rule: nonzero; opacity: 1;"  transform=" translate(-629.53, -297.3)" d="M 696.6 323.1 l -30.7 -95 c -11.4 -40.3 -26.8 -46.7 -26.8 -46.7 c -41.2 15.2 -29.7 60 -29.7 60 l 36.1 78.4 l -83.9 56.3 c 0 0 2 20.2 17.8 37.1 l 109.7 -69.4 C 696 339.4 699.1 330.9 696.6 323.1 z" stroke-linecap="round" />
</g>
		<g transform="matrix(1 0 0 1 44.78 -417.16)" id="Layer_1"  >
<path style="stroke: rgb(0,0,0); stroke-width: 0.1; stroke-dasharray: none; stroke-linecap: butt; stroke-dashoffset: 0; stroke-linejoin: miter; stroke-miterlimit: 4; fill: rgb(182,77,80); fill-rule: nonzero; opacity: 1;"  transform=" translate(-544.78, -82.84)" d="M 589.3 42.6 c -0.1 -0.1 -0.2 -0.2 -0.2 -0.2 c -11.8 -12.1 -28.4 -18.4 -45.3 -16.9 c -4.1 0.4 -8.2 1.2 -12.2 2.6 c -1.7 0.6 -3.4 1.3 -5.1 2 c -24.3 9.1 -36 -2.3 -36 -2.3 c -16.6 25.1 -5.8 44.4 0.9 52.6 c 0.4 0.7 3 4.7 4.1 4.3 c 0.5 -0.2 19.9 -8.2 60.9 0.1 c 0 0 7.2 19 3.1 35.1 c 0 0 8.1 0.9 10 -1.5 c 0 0 3 -12.6 2.2 -20.9 c 0 0 14.1 -3.3 10.3 15.5 c 0 0 -2.2 11.6 -9.6 13.6 l 6.7 13.8 c 3.4 -1.8 6.2 -4.1 7 -4.8 c 7.3 -6.9 12.8 -13.9 16.4 -23.4 c 2.8 -7.5 4.9 -15.5 5.3 -23.5 C 608.5 71.9 600.8 54.5 589.3 42.6 z" stroke-linecap="round" />
</g>
</g>
</g>
</svg>